<svg width="474" height="526" viewBox="0 0 474 526" fill="none" xmlns="http://www.w3.org/2000/svg">
<rect x="146.5" y="140.5" width="212" height="219" stroke="#4895EF" stroke-width="19"/>
<path d="M38 32C38 14.3269 52.3269 0 70 0H202C219.673 0 234 14.3269 234 32V196H70C52.3269 196 38 181.673 38 164V32Z" fill="white"/>
<path d="M270 99C270 76.9086 287.909 59 310 59H426C448.091 59 466 76.9086 466 99V215C466 237.091 448.091 255 426 255H270V99Z" fill="white"/>
<path d="M278 330H434C456.091 330 474 347.909 474 370V486C474 508.091 456.091 526 434 526H318C295.909 526 278 508.091 278 486V330Z" fill="white"/>
<rect y="232" width="243" height="243" rx="40" fill="white"/>
<path d="M95.488 146H92.7721V140.454H87.6833V146H84.9587V133.15H87.6833V138.187H92.7721V133.15H95.488V146ZM104.237 146H101.512V135.418H98.0231V133.15H107.726V135.418H104.237V146ZM115.684 146L112.59 135.919H112.511C112.623 137.97 112.678 139.338 112.678 140.023V146H110.244V133.15H113.953L116.994 142.977H117.046L120.272 133.15H123.981V146H121.441V139.918C121.441 139.631 121.444 139.3 121.45 138.925C121.462 138.55 121.503 137.554 121.573 135.937H121.494L118.18 146H115.684ZM127.764 146V133.15H130.489V143.75H135.701V146H127.764ZM149.428 133.15L144.638 146H142.204L146.994 133.15H149.428ZM162.347 135.233C161.322 135.233 160.528 135.62 159.965 136.394C159.403 137.161 159.121 138.233 159.121 139.61C159.121 142.476 160.197 143.908 162.347 143.908C163.249 143.908 164.342 143.683 165.625 143.231V145.517C164.571 145.956 163.393 146.176 162.092 146.176C160.223 146.176 158.793 145.61 157.803 144.479C156.813 143.343 156.318 141.714 156.318 139.593C156.318 138.257 156.561 137.088 157.047 136.086C157.534 135.078 158.231 134.308 159.139 133.774C160.053 133.235 161.122 132.966 162.347 132.966C163.595 132.966 164.849 133.268 166.109 133.871L165.23 136.086C164.749 135.857 164.266 135.658 163.78 135.488C163.293 135.318 162.816 135.233 162.347 135.233ZM176.493 142.432C176.493 143.592 176.074 144.506 175.236 145.174C174.404 145.842 173.244 146.176 171.755 146.176C170.384 146.176 169.171 145.918 168.117 145.402V142.871C168.984 143.258 169.716 143.53 170.314 143.688C170.917 143.847 171.468 143.926 171.966 143.926C172.564 143.926 173.021 143.812 173.337 143.583C173.66 143.354 173.821 143.015 173.821 142.563C173.821 142.312 173.75 142.089 173.61 141.896C173.469 141.696 173.261 141.506 172.986 141.324C172.716 141.143 172.162 140.853 171.325 140.454C170.539 140.085 169.951 139.73 169.558 139.391C169.165 139.051 168.852 138.655 168.618 138.204C168.383 137.753 168.266 137.226 168.266 136.622C168.266 135.485 168.65 134.592 169.417 133.941C170.191 133.291 171.257 132.966 172.617 132.966C173.285 132.966 173.92 133.045 174.524 133.203C175.133 133.361 175.769 133.584 176.431 133.871L175.552 135.989C174.867 135.708 174.298 135.512 173.847 135.4C173.402 135.289 172.962 135.233 172.529 135.233C172.013 135.233 171.618 135.354 171.342 135.594C171.067 135.834 170.929 136.147 170.929 136.534C170.929 136.774 170.985 136.985 171.096 137.167C171.207 137.343 171.383 137.516 171.623 137.686C171.869 137.85 172.447 138.148 173.355 138.582C174.556 139.156 175.379 139.733 175.825 140.313C176.27 140.888 176.493 141.594 176.493 142.432ZM186.947 142.432C186.947 143.592 186.528 144.506 185.69 145.174C184.858 145.842 183.698 146.176 182.209 146.176C180.838 146.176 179.625 145.918 178.571 145.402V142.871C179.438 143.258 180.17 143.53 180.768 143.688C181.371 143.847 181.922 143.926 182.42 143.926C183.018 143.926 183.475 143.812 183.791 143.583C184.114 143.354 184.275 143.015 184.275 142.563C184.275 142.312 184.204 142.089 184.064 141.896C183.923 141.696 183.715 141.506 183.44 141.324C183.17 141.143 182.617 140.853 181.779 140.454C180.993 140.085 180.405 139.73 180.012 139.391C179.619 139.051 179.306 138.655 179.072 138.204C178.837 137.753 178.72 137.226 178.72 136.622C178.72 135.485 179.104 134.592 179.871 133.941C180.645 133.291 181.711 132.966 183.071 132.966C183.739 132.966 184.374 133.045 184.978 133.203C185.587 133.361 186.223 133.584 186.885 133.871L186.006 135.989C185.321 135.708 184.752 135.512 184.301 135.4C183.856 135.289 183.416 135.233 182.983 135.233C182.467 135.233 182.072 135.354 181.796 135.594C181.521 135.834 181.383 136.147 181.383 136.534C181.383 136.774 181.439 136.985 181.55 137.167C181.661 137.343 181.837 137.516 182.077 137.686C182.324 137.85 182.901 138.148 183.809 138.582C185.01 139.156 185.833 139.733 186.279 140.313C186.724 140.888 186.947 141.594 186.947 142.432Z" fill="#3A0CA3"/>
<path d="M312.977 191.15H315.728L311.36 204H308.389L304.03 191.15H306.781L309.197 198.797C309.332 199.248 309.47 199.775 309.611 200.379C309.757 200.977 309.848 201.393 309.883 201.627C309.947 201.088 310.167 200.145 310.542 198.797L312.977 191.15ZM317.569 191.634C317.569 190.761 318.055 190.324 319.028 190.324C320 190.324 320.487 190.761 320.487 191.634C320.487 192.05 320.363 192.375 320.117 192.609C319.877 192.838 319.514 192.952 319.028 192.952C318.055 192.952 317.569 192.513 317.569 191.634ZM320.363 204H317.683V194.174H320.363V204ZM330.58 201.082C330.58 202.09 330.229 202.857 329.526 203.385C328.828 203.912 327.782 204.176 326.388 204.176C325.673 204.176 325.064 204.126 324.56 204.026C324.056 203.933 323.584 203.792 323.145 203.604V201.39C323.643 201.624 324.202 201.82 324.823 201.979C325.45 202.137 326.001 202.216 326.476 202.216C327.448 202.216 327.935 201.935 327.935 201.372C327.935 201.161 327.87 200.991 327.741 200.862C327.612 200.728 327.39 200.578 327.073 200.414C326.757 200.244 326.335 200.048 325.808 199.825C325.052 199.509 324.495 199.216 324.138 198.946C323.786 198.677 323.528 198.369 323.364 198.023C323.206 197.672 323.127 197.241 323.127 196.731C323.127 195.858 323.464 195.185 324.138 194.71C324.818 194.229 325.778 193.989 327.021 193.989C328.204 193.989 329.356 194.247 330.475 194.763L329.666 196.696C329.174 196.485 328.714 196.312 328.286 196.178C327.859 196.043 327.422 195.976 326.977 195.976C326.186 195.976 325.79 196.189 325.79 196.617C325.79 196.857 325.916 197.065 326.168 197.241C326.426 197.417 326.986 197.678 327.847 198.023C328.614 198.334 329.177 198.624 329.534 198.894C329.892 199.163 330.155 199.474 330.325 199.825C330.495 200.177 330.58 200.596 330.58 201.082ZM340.173 204L339.813 202.743H339.672C339.385 203.2 338.978 203.555 338.45 203.807C337.923 204.053 337.322 204.176 336.649 204.176C335.494 204.176 334.624 203.868 334.038 203.253C333.452 202.632 333.159 201.741 333.159 200.581V194.174H335.84V199.913C335.84 200.622 335.966 201.155 336.218 201.513C336.47 201.864 336.871 202.04 337.422 202.04C338.172 202.04 338.714 201.791 339.048 201.293C339.382 200.789 339.549 199.957 339.549 198.797V194.174H342.23V204H340.173ZM351.822 204L351.304 202.664H351.233C350.782 203.232 350.316 203.628 349.836 203.851C349.361 204.067 348.74 204.176 347.973 204.176C347.029 204.176 346.285 203.906 345.74 203.367C345.201 202.828 344.932 202.061 344.932 201.064C344.932 200.021 345.295 199.254 346.022 198.762C346.754 198.264 347.856 197.988 349.326 197.936L351.031 197.883V197.452C351.031 196.456 350.522 195.958 349.502 195.958C348.717 195.958 347.794 196.195 346.733 196.67L345.846 194.859C346.977 194.268 348.231 193.972 349.607 193.972C350.926 193.972 351.937 194.259 352.64 194.833C353.343 195.407 353.694 196.28 353.694 197.452V204H351.822ZM351.031 199.447L349.994 199.482C349.215 199.506 348.635 199.646 348.254 199.904C347.873 200.162 347.683 200.555 347.683 201.082C347.683 201.838 348.116 202.216 348.983 202.216C349.605 202.216 350.1 202.037 350.469 201.68C350.844 201.322 351.031 200.848 351.031 200.256V199.447ZM359.684 204H357.003V190.324H359.684V204ZM379.133 197.452C379.133 199.567 378.529 201.188 377.322 202.312C376.121 203.438 374.384 204 372.11 204H368.472V191.15H372.506C374.603 191.15 376.232 191.704 377.393 192.812C378.553 193.919 379.133 195.466 379.133 197.452ZM376.303 197.522C376.303 194.763 375.084 193.383 372.646 193.383H371.196V201.75H372.365C374.99 201.75 376.303 200.341 376.303 197.522ZM386.194 195.896C385.626 195.896 385.181 196.078 384.858 196.441C384.536 196.799 384.351 197.309 384.305 197.971H388.066C388.055 197.309 387.882 196.799 387.548 196.441C387.214 196.078 386.763 195.896 386.194 195.896ZM386.572 204.176C384.99 204.176 383.754 203.739 382.863 202.866C381.973 201.993 381.527 200.757 381.527 199.157C381.527 197.511 381.937 196.239 382.758 195.343C383.584 194.44 384.724 193.989 386.177 193.989C387.565 193.989 388.646 194.385 389.42 195.176C390.193 195.967 390.58 197.06 390.58 198.454V199.755H384.243C384.272 200.517 384.498 201.111 384.92 201.539C385.342 201.967 385.934 202.181 386.695 202.181C387.287 202.181 387.847 202.119 388.374 201.996C388.901 201.873 389.452 201.677 390.026 201.407V203.481C389.558 203.716 389.057 203.889 388.523 204C387.99 204.117 387.34 204.176 386.572 204.176ZM400.155 201.082C400.155 202.09 399.804 202.857 399.1 203.385C398.403 203.912 397.357 204.176 395.963 204.176C395.248 204.176 394.639 204.126 394.135 204.026C393.631 203.933 393.159 203.792 392.72 203.604V201.39C393.218 201.624 393.777 201.82 394.398 201.979C395.025 202.137 395.576 202.216 396.051 202.216C397.023 202.216 397.51 201.935 397.51 201.372C397.51 201.161 397.445 200.991 397.316 200.862C397.187 200.728 396.965 200.578 396.648 200.414C396.332 200.244 395.91 200.048 395.383 199.825C394.627 199.509 394.07 199.216 393.713 198.946C393.361 198.677 393.103 198.369 392.939 198.023C392.781 197.672 392.702 197.241 392.702 196.731C392.702 195.858 393.039 195.185 393.713 194.71C394.392 194.229 395.353 193.989 396.596 193.989C397.779 193.989 398.931 194.247 400.05 194.763L399.241 196.696C398.749 196.485 398.289 196.312 397.861 196.178C397.433 196.043 396.997 195.976 396.552 195.976C395.761 195.976 395.365 196.189 395.365 196.617C395.365 196.857 395.491 197.065 395.743 197.241C396.001 197.417 396.56 197.678 397.422 198.023C398.189 198.334 398.752 198.624 399.109 198.894C399.467 199.163 399.73 199.474 399.9 199.825C400.07 200.177 400.155 200.596 400.155 201.082ZM402.673 191.634C402.673 190.761 403.159 190.324 404.132 190.324C405.104 190.324 405.591 190.761 405.591 191.634C405.591 192.05 405.468 192.375 405.222 192.609C404.981 192.838 404.618 192.952 404.132 192.952C403.159 192.952 402.673 192.513 402.673 191.634ZM405.468 204H402.787V194.174H405.468V204ZM417.381 194.174V195.536L415.843 195.932C416.124 196.371 416.264 196.863 416.264 197.408C416.264 198.463 415.895 199.286 415.157 199.878C414.425 200.464 413.405 200.757 412.098 200.757L411.615 200.73L411.22 200.687C410.944 200.897 410.806 201.132 410.806 201.39C410.806 201.776 411.299 201.97 412.283 201.97H413.953C415.031 201.97 415.851 202.201 416.414 202.664C416.982 203.127 417.266 203.807 417.266 204.703C417.266 205.852 416.786 206.742 415.825 207.375C414.87 208.008 413.496 208.324 411.703 208.324C410.332 208.324 409.283 208.084 408.556 207.604C407.836 207.129 407.475 206.461 407.475 205.6C407.475 205.008 407.66 204.513 408.029 204.114C408.398 203.716 408.94 203.432 409.655 203.262C409.38 203.145 409.139 202.954 408.934 202.69C408.729 202.421 408.627 202.137 408.627 201.838C408.627 201.463 408.735 201.152 408.952 200.906C409.169 200.654 409.482 200.408 409.892 200.168C409.377 199.945 408.967 199.588 408.662 199.096C408.363 198.604 408.214 198.023 408.214 197.355C408.214 196.283 408.562 195.454 409.26 194.868C409.957 194.282 410.953 193.989 412.248 193.989C412.523 193.989 412.848 194.016 413.223 194.068C413.604 194.115 413.847 194.15 413.953 194.174H417.381ZM409.796 205.389C409.796 205.758 409.971 206.048 410.323 206.259C410.68 206.47 411.179 206.575 411.817 206.575C412.778 206.575 413.531 206.443 414.076 206.18C414.621 205.916 414.893 205.556 414.893 205.099C414.893 204.729 414.732 204.475 414.41 204.334C414.088 204.193 413.59 204.123 412.916 204.123H411.527C411.035 204.123 410.622 204.237 410.288 204.466C409.96 204.7 409.796 205.008 409.796 205.389ZM410.771 197.391C410.771 197.924 410.891 198.346 411.132 198.656C411.378 198.967 411.75 199.122 412.248 199.122C412.752 199.122 413.121 198.967 413.355 198.656C413.59 198.346 413.707 197.924 413.707 197.391C413.707 196.207 413.221 195.615 412.248 195.615C411.263 195.615 410.771 196.207 410.771 197.391ZM428.617 204H425.936V198.261C425.936 197.552 425.81 197.021 425.558 196.67C425.306 196.312 424.905 196.134 424.354 196.134C423.604 196.134 423.062 196.386 422.728 196.89C422.394 197.388 422.227 198.217 422.227 199.377V204H419.547V194.174H421.594L421.955 195.431H422.104C422.403 194.956 422.813 194.599 423.335 194.358C423.862 194.112 424.46 193.989 425.128 193.989C426.27 193.989 427.137 194.3 427.729 194.921C428.321 195.536 428.617 196.427 428.617 197.593V204Z" fill="#3A0CA3"/>
<path d="M324.362 469.197H325.259C326.097 469.197 326.724 469.033 327.14 468.705C327.556 468.371 327.764 467.888 327.764 467.255C327.764 466.616 327.588 466.145 327.237 465.84C326.891 465.535 326.346 465.383 325.602 465.383H324.362V469.197ZM330.515 467.158C330.515 468.541 330.081 469.599 329.214 470.331C328.353 471.063 327.125 471.43 325.531 471.43H324.362V476H321.638V463.15H325.742C327.301 463.15 328.485 463.487 329.293 464.161C330.108 464.829 330.515 465.828 330.515 467.158ZM338.754 465.989C339.117 465.989 339.419 466.016 339.659 466.068L339.457 468.582C339.24 468.523 338.977 468.494 338.666 468.494C337.811 468.494 337.143 468.714 336.662 469.153C336.188 469.593 335.95 470.208 335.95 470.999V476H333.27V466.174H335.3L335.695 467.826H335.827C336.132 467.275 336.542 466.833 337.058 466.499C337.579 466.159 338.145 465.989 338.754 465.989ZM344.119 471.069C344.119 472.042 344.277 472.777 344.594 473.275C344.916 473.773 345.438 474.022 346.158 474.022C346.873 474.022 347.386 473.776 347.696 473.284C348.013 472.786 348.171 472.048 348.171 471.069C348.171 470.097 348.013 469.367 347.696 468.881C347.38 468.395 346.861 468.151 346.141 468.151C345.426 468.151 344.91 468.395 344.594 468.881C344.277 469.361 344.119 470.091 344.119 471.069ZM350.913 471.069C350.913 472.669 350.491 473.92 349.648 474.822C348.804 475.725 347.629 476.176 346.123 476.176C345.18 476.176 344.348 475.971 343.627 475.561C342.906 475.145 342.353 474.55 341.966 473.776C341.579 473.003 341.386 472.101 341.386 471.069C341.386 469.464 341.805 468.216 342.643 467.325C343.481 466.435 344.658 465.989 346.176 465.989C347.119 465.989 347.951 466.194 348.672 466.604C349.393 467.015 349.946 467.604 350.333 468.371C350.72 469.139 350.913 470.038 350.913 471.069ZM357.808 474.04C358.276 474.04 358.839 473.938 359.495 473.732V475.728C358.827 476.026 358.007 476.176 357.034 476.176C355.962 476.176 355.18 475.906 354.688 475.367C354.201 474.822 353.958 474.008 353.958 472.924V468.187H352.675V467.053L354.151 466.156L354.925 464.082H356.639V466.174H359.39V468.187H356.639V472.924C356.639 473.305 356.744 473.586 356.955 473.768C357.172 473.949 357.456 474.04 357.808 474.04ZM364.166 471.069C364.166 472.042 364.324 472.777 364.641 473.275C364.963 473.773 365.484 474.022 366.205 474.022C366.92 474.022 367.433 473.776 367.743 473.284C368.06 472.786 368.218 472.048 368.218 471.069C368.218 470.097 368.06 469.367 367.743 468.881C367.427 468.395 366.908 468.151 366.188 468.151C365.473 468.151 364.957 468.395 364.641 468.881C364.324 469.361 364.166 470.091 364.166 471.069ZM370.96 471.069C370.96 472.669 370.538 473.92 369.694 474.822C368.851 475.725 367.676 476.176 366.17 476.176C365.227 476.176 364.395 475.971 363.674 475.561C362.953 475.145 362.399 474.55 362.013 473.776C361.626 473.003 361.433 472.101 361.433 471.069C361.433 469.464 361.852 468.216 362.689 467.325C363.527 466.435 364.705 465.989 366.223 465.989C367.166 465.989 367.998 466.194 368.719 466.604C369.439 467.015 369.993 467.604 370.38 468.371C370.767 469.139 370.96 470.038 370.96 471.069ZM377.854 474.04C378.323 474.04 378.886 473.938 379.542 473.732V475.728C378.874 476.026 378.054 476.176 377.081 476.176C376.009 476.176 375.227 475.906 374.734 475.367C374.248 474.822 374.005 474.008 374.005 472.924V468.187H372.722V467.053L374.198 466.156L374.972 464.082H376.686V466.174H379.437V468.187H376.686V472.924C376.686 473.305 376.791 473.586 377.002 473.768C377.219 473.949 377.503 474.04 377.854 474.04ZM380.671 466.174H383.606L385.461 471.702C385.619 472.183 385.728 472.751 385.786 473.407H385.839C385.903 472.804 386.029 472.235 386.217 471.702L388.036 466.174H390.91L386.753 477.257C386.372 478.282 385.827 479.05 385.118 479.56C384.415 480.069 383.592 480.324 382.648 480.324C382.186 480.324 381.731 480.274 381.286 480.175V478.048C381.608 478.124 381.96 478.162 382.341 478.162C382.815 478.162 383.228 478.016 383.58 477.723C383.937 477.436 384.216 476.999 384.415 476.413L384.573 475.93L380.671 466.174ZM398.262 476.176C397.107 476.176 396.202 475.757 395.546 474.919H395.405C395.499 475.739 395.546 476.214 395.546 476.343V480.324H392.865V466.174H395.045L395.423 467.448H395.546C396.173 466.476 397.101 465.989 398.332 465.989C399.492 465.989 400.4 466.438 401.057 467.334C401.713 468.23 402.041 469.476 402.041 471.069C402.041 472.118 401.886 473.029 401.575 473.803C401.27 474.576 400.834 475.165 400.266 475.569C399.697 475.974 399.029 476.176 398.262 476.176ZM397.471 468.134C396.809 468.134 396.325 468.339 396.02 468.749C395.716 469.153 395.558 469.824 395.546 470.762V471.052C395.546 472.106 395.701 472.862 396.012 473.319C396.328 473.776 396.826 474.005 397.506 474.005C398.707 474.005 399.308 473.015 399.308 471.034C399.308 470.067 399.158 469.344 398.859 468.863C398.566 468.377 398.103 468.134 397.471 468.134ZM404.682 463.634C404.682 462.761 405.168 462.324 406.141 462.324C407.113 462.324 407.599 462.761 407.599 463.634C407.599 464.05 407.476 464.375 407.23 464.609C406.99 464.838 406.627 464.952 406.141 464.952C405.168 464.952 404.682 464.513 404.682 463.634ZM407.476 476H404.796V466.174H407.476V476ZM419.908 476H417.227V470.261C417.227 469.552 417.101 469.021 416.849 468.67C416.598 468.312 416.196 468.134 415.645 468.134C414.895 468.134 414.353 468.386 414.019 468.89C413.685 469.388 413.518 470.217 413.518 471.377V476H410.838V466.174H412.886L413.246 467.431H413.395C413.694 466.956 414.104 466.599 414.626 466.358C415.153 466.112 415.751 465.989 416.419 465.989C417.561 465.989 418.429 466.3 419.02 466.921C419.612 467.536 419.908 468.427 419.908 469.593V476ZM431.76 466.174V467.536L430.221 467.932C430.503 468.371 430.643 468.863 430.643 469.408C430.643 470.463 430.274 471.286 429.536 471.878C428.804 472.464 427.784 472.757 426.477 472.757L425.994 472.73L425.598 472.687C425.323 472.897 425.185 473.132 425.185 473.39C425.185 473.776 425.678 473.97 426.662 473.97H428.332C429.41 473.97 430.23 474.201 430.793 474.664C431.361 475.127 431.645 475.807 431.645 476.703C431.645 477.852 431.165 478.742 430.204 479.375C429.249 480.008 427.875 480.324 426.082 480.324C424.711 480.324 423.662 480.084 422.935 479.604C422.215 479.129 421.854 478.461 421.854 477.6C421.854 477.008 422.039 476.513 422.408 476.114C422.777 475.716 423.319 475.432 424.034 475.262C423.759 475.145 423.518 474.954 423.313 474.69C423.108 474.421 423.006 474.137 423.006 473.838C423.006 473.463 423.114 473.152 423.331 472.906C423.548 472.654 423.861 472.408 424.271 472.168C423.756 471.945 423.346 471.588 423.041 471.096C422.742 470.604 422.593 470.023 422.593 469.355C422.593 468.283 422.941 467.454 423.638 466.868C424.336 466.282 425.332 465.989 426.627 465.989C426.902 465.989 427.227 466.016 427.602 466.068C427.983 466.115 428.226 466.15 428.332 466.174H431.76ZM424.175 477.389C424.175 477.758 424.35 478.048 424.702 478.259C425.059 478.47 425.557 478.575 426.196 478.575C427.157 478.575 427.91 478.443 428.455 478.18C429 477.916 429.272 477.556 429.272 477.099C429.272 476.729 429.111 476.475 428.789 476.334C428.467 476.193 427.969 476.123 427.295 476.123H425.906C425.414 476.123 425.001 476.237 424.667 476.466C424.339 476.7 424.175 477.008 424.175 477.389ZM425.15 469.391C425.15 469.924 425.27 470.346 425.511 470.656C425.757 470.967 426.129 471.122 426.627 471.122C427.131 471.122 427.5 470.967 427.734 470.656C427.969 470.346 428.086 469.924 428.086 469.391C428.086 468.207 427.599 467.615 426.627 467.615C425.642 467.615 425.15 468.207 425.15 469.391Z" fill="#3A0CA3"/>
<path d="M76.4631 420H73.3605L71.6203 413.25C71.5559 413.01 71.4445 412.515 71.2863 411.765C71.134 411.009 71.0461 410.502 71.0227 410.244C70.9875 410.561 70.8996 411.07 70.759 411.773C70.6184 412.471 70.51 412.969 70.4338 413.268L68.7023 420H65.6086L62.3303 407.15H65.0109L66.6545 414.164C66.9416 415.459 67.1496 416.581 67.2785 417.53C67.3137 417.196 67.3928 416.681 67.5158 415.983C67.6447 415.28 67.7648 414.735 67.8762 414.349L69.7482 407.15H72.3234L74.1955 414.349C74.2775 414.671 74.3801 415.163 74.5031 415.825C74.6262 416.487 74.7199 417.056 74.7844 417.53C74.843 417.073 74.9367 416.505 75.0656 415.825C75.1945 415.14 75.3117 414.586 75.4172 414.164L77.052 407.15H79.7326L76.4631 420ZM81.5646 407.634C81.5646 406.761 82.0509 406.324 83.0236 406.324C83.9963 406.324 84.4826 406.761 84.4826 407.634C84.4826 408.05 84.3595 408.375 84.1134 408.609C83.8732 408.838 83.5099 408.952 83.0236 408.952C82.0509 408.952 81.5646 408.513 81.5646 407.634ZM84.3595 420H81.6789V410.174H84.3595V420ZM93.2052 409.989C93.5685 409.989 93.8702 410.016 94.1105 410.068L93.9083 412.582C93.6915 412.523 93.4279 412.494 93.1173 412.494C92.2618 412.494 91.5939 412.714 91.1134 413.153C90.6388 413.593 90.4015 414.208 90.4015 414.999V420H87.7208V410.174H89.7511L90.1466 411.826H90.2784C90.5831 411.275 90.9933 410.833 91.5089 410.499C92.0304 410.159 92.5958 409.989 93.2052 409.989ZM100.504 411.896C99.9356 411.896 99.4903 412.078 99.168 412.441C98.8458 412.799 98.6612 413.309 98.6143 413.971H102.376C102.364 413.309 102.191 412.799 101.857 412.441C101.524 412.078 101.072 411.896 100.504 411.896ZM100.882 420.176C99.2999 420.176 98.0636 419.739 97.1729 418.866C96.2823 417.993 95.837 416.757 95.837 415.157C95.837 413.511 96.2471 412.239 97.0675 411.343C97.8936 410.44 99.0333 409.989 100.486 409.989C101.875 409.989 102.956 410.385 103.73 411.176C104.503 411.967 104.89 413.06 104.89 414.454V415.755H98.5528C98.5821 416.517 98.8077 417.111 99.2296 417.539C99.6514 417.967 100.243 418.181 101.005 418.181C101.597 418.181 102.156 418.119 102.684 417.996C103.211 417.873 103.762 417.677 104.336 417.407V419.481C103.867 419.716 103.366 419.889 102.833 420C102.3 420.117 101.649 420.176 100.882 420.176ZM113.041 412.187H110.721V420H108.04V412.187H106.564V410.895L108.04 410.174V409.453C108.04 408.334 108.315 407.517 108.866 407.001C109.417 406.485 110.299 406.228 111.512 406.228C112.438 406.228 113.261 406.365 113.981 406.641L113.296 408.609C112.757 408.439 112.259 408.354 111.802 408.354C111.421 408.354 111.146 408.469 110.976 408.697C110.806 408.92 110.721 409.207 110.721 409.559V410.174H113.041V412.187ZM120.612 409.989C120.976 409.989 121.277 410.016 121.518 410.068L121.315 412.582C121.099 412.523 120.835 412.494 120.524 412.494C119.669 412.494 119.001 412.714 118.521 413.153C118.046 413.593 117.809 414.208 117.809 414.999V420H115.128V410.174H117.158L117.554 411.826H117.686C117.99 411.275 118.4 410.833 118.916 410.499C119.438 410.159 120.003 409.989 120.612 409.989ZM130.082 420L129.563 418.664H129.493C129.042 419.232 128.576 419.628 128.096 419.851C127.621 420.067 127 420.176 126.232 420.176C125.289 420.176 124.545 419.906 124 419.367C123.461 418.828 123.191 418.061 123.191 417.064C123.191 416.021 123.555 415.254 124.281 414.762C125.014 414.264 126.115 413.988 127.586 413.936L129.291 413.883V413.452C129.291 412.456 128.781 411.958 127.762 411.958C126.977 411.958 126.054 412.195 124.993 412.67L124.105 410.859C125.236 410.268 126.49 409.972 127.867 409.972C129.186 409.972 130.196 410.259 130.899 410.833C131.603 411.407 131.954 412.28 131.954 413.452V420H130.082ZM129.291 415.447L128.254 415.482C127.475 415.506 126.894 415.646 126.514 415.904C126.133 416.162 125.942 416.555 125.942 417.082C125.942 417.838 126.376 418.216 127.243 418.216C127.864 418.216 128.359 418.037 128.728 417.68C129.103 417.322 129.291 416.848 129.291 416.256V415.447ZM144.06 420H141.38V414.261C141.38 413.552 141.26 413.021 141.019 412.67C140.785 412.312 140.413 412.134 139.903 412.134C139.218 412.134 138.72 412.386 138.409 412.89C138.099 413.394 137.943 414.223 137.943 415.377V420H135.263V410.174H137.31L137.671 411.431H137.82C138.084 410.979 138.465 410.628 138.963 410.376C139.461 410.118 140.032 409.989 140.677 409.989C142.147 409.989 143.143 410.47 143.665 411.431H143.902C144.166 410.974 144.553 410.619 145.062 410.367C145.578 410.115 146.158 409.989 146.803 409.989C147.916 409.989 148.757 410.276 149.325 410.851C149.899 411.419 150.186 412.333 150.186 413.593V420H147.497V414.261C147.497 413.552 147.377 413.021 147.137 412.67C146.902 412.312 146.53 412.134 146.02 412.134C145.364 412.134 144.872 412.368 144.544 412.837C144.222 413.306 144.06 414.05 144.06 415.069V420ZM153.372 407.634C153.372 406.761 153.858 406.324 154.831 406.324C155.804 406.324 156.29 406.761 156.29 407.634C156.29 408.05 156.167 408.375 155.921 408.609C155.681 408.838 155.317 408.952 154.831 408.952C153.858 408.952 153.372 408.513 153.372 407.634ZM156.167 420H153.486V410.174H156.167V420ZM168.598 420H165.918V414.261C165.918 413.552 165.792 413.021 165.54 412.67C165.288 412.312 164.887 412.134 164.336 412.134C163.586 412.134 163.044 412.386 162.71 412.89C162.376 413.388 162.209 414.217 162.209 415.377V420H159.528V410.174H161.576L161.936 411.431H162.086C162.385 410.956 162.795 410.599 163.316 410.358C163.844 410.112 164.441 409.989 165.109 409.989C166.252 409.989 167.119 410.3 167.711 410.921C168.303 411.536 168.598 412.427 168.598 413.593V420ZM180.45 410.174V411.536L178.912 411.932C179.193 412.371 179.334 412.863 179.334 413.408C179.334 414.463 178.965 415.286 178.226 415.878C177.494 416.464 176.474 416.757 175.168 416.757L174.684 416.73L174.289 416.687C174.013 416.897 173.876 417.132 173.876 417.39C173.876 417.776 174.368 417.97 175.352 417.97H177.022C178.1 417.97 178.921 418.201 179.483 418.664C180.052 419.127 180.336 419.807 180.336 420.703C180.336 421.852 179.855 422.742 178.894 423.375C177.939 424.008 176.565 424.324 174.772 424.324C173.401 424.324 172.352 424.084 171.626 423.604C170.905 423.129 170.545 422.461 170.545 421.6C170.545 421.008 170.729 420.513 171.098 420.114C171.468 419.716 172.01 419.432 172.724 419.262C172.449 419.145 172.209 418.954 172.004 418.69C171.799 418.421 171.696 418.137 171.696 417.838C171.696 417.463 171.804 417.152 172.021 416.906C172.238 416.654 172.552 416.408 172.962 416.168C172.446 415.945 172.036 415.588 171.731 415.096C171.432 414.604 171.283 414.023 171.283 413.355C171.283 412.283 171.632 411.454 172.329 410.868C173.026 410.282 174.022 409.989 175.317 409.989C175.593 409.989 175.918 410.016 176.293 410.068C176.674 410.115 176.917 410.15 177.022 410.174H180.45ZM172.865 421.389C172.865 421.758 173.041 422.048 173.392 422.259C173.75 422.47 174.248 422.575 174.887 422.575C175.847 422.575 176.6 422.443 177.145 422.18C177.69 421.916 177.963 421.556 177.963 421.099C177.963 420.729 177.802 420.475 177.479 420.334C177.157 420.193 176.659 420.123 175.985 420.123H174.596C174.104 420.123 173.691 420.237 173.357 420.466C173.029 420.7 172.865 421.008 172.865 421.389ZM173.841 413.391C173.841 413.924 173.961 414.346 174.201 414.656C174.447 414.967 174.819 415.122 175.317 415.122C175.821 415.122 176.19 414.967 176.425 414.656C176.659 414.346 176.776 413.924 176.776 413.391C176.776 412.207 176.29 411.615 175.317 411.615C174.333 411.615 173.841 412.207 173.841 413.391Z" fill="#3A0CA3"/>
<path fill-rule="evenodd" clip-rule="evenodd" d="M86.9847 297.234C85.5361 297.736 84.4376 298.95 84.1289 300.391C84.0125 300.933 83.9796 310.659 84.0115 334.911L84.0562 368.675L84.371 369.356C84.7734 370.227 85.7273 371.181 86.5979 371.583L87.2789 371.898H121.483H155.687L156.368 371.583C157.239 371.181 158.193 370.227 158.595 369.356L158.91 368.675V334.471V300.267L158.595 299.586C158.193 298.715 157.239 297.762 156.368 297.359L155.687 297.044L121.703 297.012C89.7704 296.981 87.6741 296.995 86.9847 297.234ZM155.574 300.38L155.98 300.786L156.023 304.738L156.067 308.69H121.483H86.8992L86.9425 304.75C86.9833 301.05 87.0038 300.79 87.2789 300.485C87.44 300.306 87.7037 300.105 87.8648 300.039C88.0259 299.973 103.235 299.931 121.663 299.946L155.168 299.974L155.574 300.38ZM127.692 302.974C127.231 303.16 126.756 303.839 126.756 304.313C126.756 304.899 127.43 305.603 128.091 305.708C128.537 305.779 128.698 305.723 129.113 305.352C129.525 304.984 129.606 304.81 129.606 304.295C129.606 303.786 129.524 303.606 129.131 303.255C128.65 302.825 128.253 302.747 127.692 302.974ZM133.552 302.974C133.09 303.16 132.616 303.839 132.616 304.313C132.616 304.567 132.783 304.917 133.043 305.209L133.47 305.687L136.914 305.731L140.358 305.775L140.842 305.343C141.243 304.984 141.325 304.807 141.325 304.295C141.325 303.786 141.243 303.606 140.85 303.255L140.375 302.831L137.118 302.84C135.326 302.845 133.722 302.905 133.552 302.974ZM145.27 302.974C144.809 303.16 144.335 303.839 144.335 304.313C144.335 304.567 144.502 304.917 144.762 305.209L145.189 305.687L148.633 305.731L152.077 305.775L152.56 305.343C152.962 304.984 153.044 304.807 153.044 304.295C153.044 303.786 152.962 303.606 152.569 303.255L152.094 302.831L148.837 302.84C147.045 302.845 145.44 302.905 145.27 302.974ZM156.018 339.888L155.98 368.156L155.574 368.562L155.168 368.968H121.483H87.7981L87.3921 368.562L86.9859 368.156L86.9481 339.888L86.9105 311.62H121.483H156.055L156.018 339.888ZM94.6031 318.496C94.4419 318.562 94.1783 318.763 94.0171 318.942C93.7363 319.254 93.7242 319.474 93.7242 324.229V329.191L94.1304 329.597L94.5364 330.003L121.409 330.041L148.282 330.079L148.762 329.65L149.242 329.222V324.217V319.213L148.763 318.785L148.285 318.358L121.59 318.367C106.908 318.372 94.7642 318.43 94.6031 318.496ZM146.385 324.217V327.147H121.483H96.5806V324.217V321.288H121.483H146.385V324.217ZM94.6031 336.514C94.4419 336.58 94.1783 336.78 94.0171 336.959C93.7292 337.28 93.7242 337.491 93.7242 349.571V361.857L94.1302 362.263L94.5364 362.669L103.829 362.709L113.122 362.749L113.604 362.318L114.085 361.888V349.559V337.23L113.607 336.803L113.129 336.375L104.012 336.385C98.9983 336.39 94.7642 336.448 94.6031 336.514ZM120.954 336.519C120.784 336.588 120.503 336.825 120.329 337.045L120.013 337.447L120.052 349.667L120.091 361.888L120.57 362.315L121.048 362.743H134.667H148.285L148.763 362.315L149.242 361.888V349.559V337.23L148.763 336.803L148.285 336.375L134.774 336.385C127.343 336.39 121.124 336.45 120.954 336.519ZM111.229 349.559V359.813H103.905H96.5806V349.559V339.305H103.905H111.229V349.559ZM143.599 339.656C142.635 340.589 134.764 347.508 134.667 347.508C134.57 347.508 126.698 340.589 125.734 339.656L125.371 339.305H134.667H143.962L143.599 339.656ZM127.902 345.51C130.334 347.675 132.323 349.496 132.323 349.559C132.323 349.665 123.803 357.312 123.215 357.734C122.957 357.918 122.948 357.624 122.948 349.559C122.948 341.494 122.957 341.2 123.215 341.384C123.361 341.489 125.471 343.346 127.902 345.51ZM146.351 353.75L146.312 357.941L141.661 353.807C139.103 351.534 137.01 349.622 137.01 349.559C137.01 349.496 139.103 347.584 141.661 345.311L146.312 341.177L146.351 345.368C146.372 347.673 146.372 351.445 146.351 353.75ZM139.351 355.675L143.927 359.74L139.297 359.778C136.75 359.8 132.583 359.8 130.036 359.778L125.406 359.74L129.983 355.675C132.499 353.439 134.607 351.61 134.667 351.61C134.726 351.61 136.834 353.439 139.351 355.675Z" fill="#3A0CA3"/>
<path fill-rule="evenodd" clip-rule="evenodd" d="M390.9 369.217C390.236 369.584 390.162 369.934 390.157 372.711L390.151 375.311H387.375C385.849 375.311 384.25 375.384 383.823 375.473C381.316 375.996 379.063 378.042 378.274 380.511C378.14 380.93 378.063 382.891 378.003 387.396L377.92 393.695L377.511 394.527C377.048 395.47 376.338 396.158 375.364 396.609C374.769 396.884 374.378 396.923 371.731 396.965L368.765 397.012V391.208C368.765 384.892 368.74 384.69 367.942 384.387C367.74 384.31 365.795 384.247 363.621 384.247C359.329 384.247 359.029 384.295 358.686 385.048C358.464 385.534 358.464 385.889 358.686 386.375C359.017 387.101 359.397 387.176 362.751 387.176H365.835V406.585V425.995H353.384H340.933V406.585V387.176H344.016C347.37 387.176 347.751 387.101 348.082 386.375C348.313 385.868 348.303 385.492 348.044 384.992C347.673 384.274 347.348 384.23 342.868 384.277C338.798 384.319 338.739 384.324 338.41 384.653L338.076 384.987L338.038 406.456L338 427.925L338.5 428.425L338.999 428.924H353.384H367.769L368.267 428.426L368.765 427.928V421.97V416.012L371.731 416.059C374.378 416.102 374.769 416.14 375.364 416.415C376.338 416.866 377.048 417.554 377.511 418.497L377.92 419.33L378.001 425.628C378.09 432.593 378.089 432.58 379.088 434.271C380.056 435.908 381.723 437.136 383.663 437.642C384.264 437.798 385.296 437.86 387.326 437.86H390.151V440.343C390.151 441.957 390.213 442.961 390.326 443.211C390.7 444.031 390.431 444.012 401.577 444.012C412.723 444.012 412.454 444.031 412.828 443.211C412.96 442.921 413.003 439.075 413.003 427.518C413.003 410.887 413.039 411.61 412.201 411.228C411.65 410.977 391.505 410.977 390.953 411.228C390.127 411.604 390.151 411.236 390.151 423.581V434.952L387.185 434.904C384.394 434.86 384.176 434.836 383.499 434.503C382.612 434.066 381.782 433.23 381.335 432.322C381.001 431.643 380.995 431.55 380.921 425.262C380.849 419.157 380.832 418.854 380.524 418.033C379.612 415.603 377.527 413.774 375.093 413.266C374.666 413.177 373.067 413.104 371.541 413.104H368.765V406.512V399.92H371.541C373.067 399.92 374.666 399.848 375.093 399.759C377.527 399.251 379.612 397.421 380.524 394.991C380.832 394.17 380.849 393.868 380.921 387.762L380.996 381.39L381.386 380.658C381.882 379.725 382.56 379.078 383.486 378.651C384.16 378.341 384.455 378.31 387.185 378.266L390.151 378.219V389.516C390.151 401.782 390.128 401.42 390.953 401.796C391.239 401.926 393.95 401.971 401.577 401.971C409.204 401.971 411.915 401.926 412.201 401.796C413.039 401.415 413.003 402.138 413.003 385.492C413.003 368.845 413.039 369.569 412.201 369.187C411.614 368.919 391.386 368.947 390.9 369.217ZM410.073 376.703V381.463H401.577H393.081V376.703V371.942H401.577H410.073V376.703ZM352.329 384.693C351.933 385.089 351.892 385.209 351.965 385.755C352.125 386.951 353.453 387.461 354.364 386.676C354.706 386.383 354.775 386.207 354.775 385.638C354.775 385.07 354.706 384.894 354.364 384.6C353.753 384.074 352.909 384.112 352.329 384.693ZM410.073 391.717V399.041H401.577H393.081V391.717V384.393H401.577H410.073V391.717ZM344.611 413.308C343.629 413.853 343.661 415.402 344.664 415.859C344.947 415.988 347.233 416.034 353.384 416.034C359.535 416.034 361.82 415.988 362.104 415.859C362.524 415.667 362.905 415.053 362.905 414.569C362.905 414.085 362.524 413.47 362.104 413.279C361.518 413.012 345.095 413.04 344.611 413.308ZM410.073 415.448V416.913H401.577H393.081V415.448V413.983H401.577H410.073V415.448ZM344.611 419.168C343.629 419.712 343.661 421.261 344.664 421.718C344.947 421.847 347.233 421.893 353.384 421.893C359.535 421.893 361.82 421.847 362.104 421.718C362.524 421.527 362.905 420.912 362.905 420.428C362.905 419.944 362.524 419.33 362.104 419.138C361.518 418.872 345.095 418.899 344.611 419.168ZM410.073 424.457V429.071H401.577H393.081V424.457V419.842H401.577H410.073V424.457ZM410.073 436.541V441.083H401.577H393.081V436.541V432H401.577H410.073V436.541Z" fill="#3A0CA3"/>
<mask id="path-12-outside-1_508_251" maskUnits="userSpaceOnUse" x="329" y="92" width="77" height="77" fill="black">
<rect fill="white" x="329" y="92" width="77" height="77"/>
<path fill-rule="evenodd" clip-rule="evenodd" d="M332.412 93.1978C331.6 93.4861 330.39 94.753 330.17 95.5443C330.051 95.974 330.001 104.105 330 122.969C329.999 145.369 330.034 149.868 330.213 150.296C330.518 151.026 331.344 151.915 332.086 152.312L332.723 152.653L345.914 152.695L359.105 152.737V156.547V160.357H354.815C352.155 160.357 350.41 160.418 350.223 160.518C349.939 160.67 349.922 160.878 349.922 164.145C349.922 166.632 349.975 167.663 350.109 167.797C350.38 168.068 384.64 168.068 384.912 167.797C385.046 167.663 385.098 166.632 385.098 164.145C385.098 160.878 385.081 160.67 384.797 160.518C384.611 160.418 382.866 160.357 380.206 160.357H375.915V156.547V152.737L389.106 152.695L402.297 152.653L402.942 152.308C403.743 151.88 404.665 150.823 404.876 150.092C404.983 149.722 405.02 140.642 404.99 122.536C404.947 97.6935 404.923 95.4951 404.685 95.0655C404.344 94.4523 403.525 93.6299 402.93 93.3033C402.488 93.0613 399.901 93.0398 367.744 93.0093C338.082 92.9813 332.944 93.0087 332.412 93.1978ZM402.366 94.8051C402.657 94.9615 403.024 95.3282 403.18 95.6199C403.452 96.127 403.465 97.2188 403.465 120.633V145.116L386.149 145.067C367.013 145.013 368.187 145.074 366.032 144.017C365.149 143.583 364.689 143.242 362.452 141.357C361.431 140.497 359.862 139.68 358.405 139.248C357.549 138.994 356.387 138.966 344.513 138.919L331.556 138.867V117.508C331.556 97.1204 331.568 96.1261 331.84 95.6199C331.996 95.3282 332.363 94.9615 332.655 94.8051C333.164 94.5321 334.564 94.5208 367.51 94.5208C400.456 94.5208 401.857 94.5321 402.366 94.8051ZM347.727 99.4677C347.052 99.8204 346.814 100.059 346.45 100.752C346.08 101.455 346.016 101.729 346.086 102.333C346.132 102.735 346.274 103.265 346.4 103.51C346.666 104.025 366.35 125.842 367.075 126.426C367.34 126.64 368.789 127.555 370.296 128.461C372.726 129.922 373.031 130.151 372.996 130.486C372.421 136.018 375.127 139.226 381.129 140.125C381.729 140.215 384.154 140.332 386.519 140.385L390.82 140.482L391.075 140.091C391.216 139.876 391.288 139.587 391.235 139.449C391.182 139.31 390.213 138.503 389.081 137.655C387.95 136.807 386.825 135.877 386.581 135.589C385.767 134.626 385.281 133.331 385.115 131.682C384.851 129.055 384.001 127.899 381.363 126.58C380.385 126.09 379.795 125.899 379.094 125.842L378.148 125.766L376.265 122.634C375.14 120.763 374.111 119.241 373.709 118.855C372.052 117.265 350.868 99.5875 350.311 99.3296C349.433 98.9229 348.694 98.9625 347.727 99.4677ZM349.926 100.856C350.539 101.279 372.533 119.814 372.905 120.222C373.09 120.425 374.018 121.886 374.967 123.47L376.692 126.348L375.397 127.644L374.102 128.939L371.043 127.099L367.984 125.26L357.884 114.102C352.328 107.965 347.739 102.829 347.685 102.688C347.17 101.347 348.757 100.05 349.926 100.856ZM380.627 127.925C382.901 129.066 383.296 129.613 383.618 132.067C384.005 135.013 384.911 136.524 387.335 138.258L388.093 138.801L386.868 138.851C384.993 138.928 380.907 138.597 379.6 138.263C377.048 137.61 375.369 136.234 374.815 134.339C374.548 133.425 374.359 131.755 374.464 131.23C374.574 130.683 376.831 128.19 377.705 127.65C378.444 127.195 379.339 127.279 380.627 127.925ZM358.222 140.787C359.759 141.325 360.968 142.046 362.237 143.181C363.815 144.594 365.229 145.463 366.844 146.014L368.055 146.427L385.76 146.469L403.465 146.511L403.465 147.948C403.464 149.745 403.214 150.326 402.226 150.824L401.531 151.174H367.51H333.489L332.795 150.824C331.587 150.215 331.556 150.068 331.556 144.904L331.556 140.425L344.513 140.474C356.199 140.519 357.545 140.549 358.222 140.787ZM336.214 145.435C336.086 145.675 336.084 145.867 336.206 146.135C336.37 146.497 336.419 146.505 338.395 146.505C340.297 146.505 340.427 146.485 340.594 146.174C340.722 145.934 340.725 145.742 340.602 145.474C340.438 145.112 340.389 145.104 338.413 145.104C336.511 145.104 336.381 145.124 336.214 145.435ZM345.398 145.435C345.269 145.675 345.267 145.867 345.389 146.135C345.553 146.497 345.602 146.505 347.578 146.505C349.481 146.505 349.61 146.485 349.777 146.174C349.905 145.934 349.908 145.742 349.786 145.474C349.621 145.112 349.572 145.104 347.596 145.104C345.694 145.104 345.564 145.124 345.398 145.435ZM354.581 145.435C354.452 145.675 354.45 145.867 354.572 146.135C354.737 146.497 354.785 146.505 356.762 146.505C358.664 146.505 358.793 146.485 358.96 146.174C359.089 145.934 359.091 145.742 358.969 145.474C358.804 145.112 358.756 145.104 356.779 145.104C354.877 145.104 354.748 145.124 354.581 145.435ZM374.359 156.544V160.357H367.51H360.662V156.544V152.731H367.51H374.359V156.544ZM383.542 164.17V166.427H367.51H351.478V164.17V161.913H367.51H383.542V164.17Z"/>
</mask>
<path fill-rule="evenodd" clip-rule="evenodd" d="M332.412 93.1978C331.6 93.4861 330.39 94.753 330.17 95.5443C330.051 95.974 330.001 104.105 330 122.969C329.999 145.369 330.034 149.868 330.213 150.296C330.518 151.026 331.344 151.915 332.086 152.312L332.723 152.653L345.914 152.695L359.105 152.737V156.547V160.357H354.815C352.155 160.357 350.41 160.418 350.223 160.518C349.939 160.67 349.922 160.878 349.922 164.145C349.922 166.632 349.975 167.663 350.109 167.797C350.38 168.068 384.64 168.068 384.912 167.797C385.046 167.663 385.098 166.632 385.098 164.145C385.098 160.878 385.081 160.67 384.797 160.518C384.611 160.418 382.866 160.357 380.206 160.357H375.915V156.547V152.737L389.106 152.695L402.297 152.653L402.942 152.308C403.743 151.88 404.665 150.823 404.876 150.092C404.983 149.722 405.02 140.642 404.99 122.536C404.947 97.6935 404.923 95.4951 404.685 95.0655C404.344 94.4523 403.525 93.6299 402.93 93.3033C402.488 93.0613 399.901 93.0398 367.744 93.0093C338.082 92.9813 332.944 93.0087 332.412 93.1978ZM402.366 94.8051C402.657 94.9615 403.024 95.3282 403.18 95.6199C403.452 96.127 403.465 97.2188 403.465 120.633V145.116L386.149 145.067C367.013 145.013 368.187 145.074 366.032 144.017C365.149 143.583 364.689 143.242 362.452 141.357C361.431 140.497 359.862 139.68 358.405 139.248C357.549 138.994 356.387 138.966 344.513 138.919L331.556 138.867V117.508C331.556 97.1204 331.568 96.1261 331.84 95.6199C331.996 95.3282 332.363 94.9615 332.655 94.8051C333.164 94.5321 334.564 94.5208 367.51 94.5208C400.456 94.5208 401.857 94.5321 402.366 94.8051ZM347.727 99.4677C347.052 99.8204 346.814 100.059 346.45 100.752C346.08 101.455 346.016 101.729 346.086 102.333C346.132 102.735 346.274 103.265 346.4 103.51C346.666 104.025 366.35 125.842 367.075 126.426C367.34 126.64 368.789 127.555 370.296 128.461C372.726 129.922 373.031 130.151 372.996 130.486C372.421 136.018 375.127 139.226 381.129 140.125C381.729 140.215 384.154 140.332 386.519 140.385L390.82 140.482L391.075 140.091C391.216 139.876 391.288 139.587 391.235 139.449C391.182 139.31 390.213 138.503 389.081 137.655C387.95 136.807 386.825 135.877 386.581 135.589C385.767 134.626 385.281 133.331 385.115 131.682C384.851 129.055 384.001 127.899 381.363 126.58C380.385 126.09 379.795 125.899 379.094 125.842L378.148 125.766L376.265 122.634C375.14 120.763 374.111 119.241 373.709 118.855C372.052 117.265 350.868 99.5875 350.311 99.3296C349.433 98.9229 348.694 98.9625 347.727 99.4677ZM349.926 100.856C350.539 101.279 372.533 119.814 372.905 120.222C373.09 120.425 374.018 121.886 374.967 123.47L376.692 126.348L375.397 127.644L374.102 128.939L371.043 127.099L367.984 125.26L357.884 114.102C352.328 107.965 347.739 102.829 347.685 102.688C347.17 101.347 348.757 100.05 349.926 100.856ZM380.627 127.925C382.901 129.066 383.296 129.613 383.618 132.067C384.005 135.013 384.911 136.524 387.335 138.258L388.093 138.801L386.868 138.851C384.993 138.928 380.907 138.597 379.6 138.263C377.048 137.61 375.369 136.234 374.815 134.339C374.548 133.425 374.359 131.755 374.464 131.23C374.574 130.683 376.831 128.19 377.705 127.65C378.444 127.195 379.339 127.279 380.627 127.925ZM358.222 140.787C359.759 141.325 360.968 142.046 362.237 143.181C363.815 144.594 365.229 145.463 366.844 146.014L368.055 146.427L385.76 146.469L403.465 146.511L403.465 147.948C403.464 149.745 403.214 150.326 402.226 150.824L401.531 151.174H367.51H333.489L332.795 150.824C331.587 150.215 331.556 150.068 331.556 144.904L331.556 140.425L344.513 140.474C356.199 140.519 357.545 140.549 358.222 140.787ZM336.214 145.435C336.086 145.675 336.084 145.867 336.206 146.135C336.37 146.497 336.419 146.505 338.395 146.505C340.297 146.505 340.427 146.485 340.594 146.174C340.722 145.934 340.725 145.742 340.602 145.474C340.438 145.112 340.389 145.104 338.413 145.104C336.511 145.104 336.381 145.124 336.214 145.435ZM345.398 145.435C345.269 145.675 345.267 145.867 345.389 146.135C345.553 146.497 345.602 146.505 347.578 146.505C349.481 146.505 349.61 146.485 349.777 146.174C349.905 145.934 349.908 145.742 349.786 145.474C349.621 145.112 349.572 145.104 347.596 145.104C345.694 145.104 345.564 145.124 345.398 145.435ZM354.581 145.435C354.452 145.675 354.45 145.867 354.572 146.135C354.737 146.497 354.785 146.505 356.762 146.505C358.664 146.505 358.793 146.485 358.96 146.174C359.089 145.934 359.091 145.742 358.969 145.474C358.804 145.112 358.756 145.104 356.779 145.104C354.877 145.104 354.748 145.124 354.581 145.435ZM374.359 156.544V160.357H367.51H360.662V156.544V152.731H367.51H374.359V156.544ZM383.542 164.17V166.427H367.51H351.478V164.17V161.913H367.51H383.542V164.17Z" fill="#3A0CA3"/>
<path fill-rule="evenodd" clip-rule="evenodd" d="M332.412 93.1978C331.6 93.4861 330.39 94.753 330.17 95.5443C330.051 95.974 330.001 104.105 330 122.969C329.999 145.369 330.034 149.868 330.213 150.296C330.518 151.026 331.344 151.915 332.086 152.312L332.723 152.653L345.914 152.695L359.105 152.737V156.547V160.357H354.815C352.155 160.357 350.41 160.418 350.223 160.518C349.939 160.67 349.922 160.878 349.922 164.145C349.922 166.632 349.975 167.663 350.109 167.797C350.38 168.068 384.64 168.068 384.912 167.797C385.046 167.663 385.098 166.632 385.098 164.145C385.098 160.878 385.081 160.67 384.797 160.518C384.611 160.418 382.866 160.357 380.206 160.357H375.915V156.547V152.737L389.106 152.695L402.297 152.653L402.942 152.308C403.743 151.88 404.665 150.823 404.876 150.092C404.983 149.722 405.02 140.642 404.99 122.536C404.947 97.6935 404.923 95.4951 404.685 95.0655C404.344 94.4523 403.525 93.6299 402.93 93.3033C402.488 93.0613 399.901 93.0398 367.744 93.0093C338.082 92.9813 332.944 93.0087 332.412 93.1978ZM402.366 94.8051C402.657 94.9615 403.024 95.3282 403.18 95.6199C403.452 96.127 403.465 97.2188 403.465 120.633V145.116L386.149 145.067C367.013 145.013 368.187 145.074 366.032 144.017C365.149 143.583 364.689 143.242 362.452 141.357C361.431 140.497 359.862 139.68 358.405 139.248C357.549 138.994 356.387 138.966 344.513 138.919L331.556 138.867V117.508C331.556 97.1204 331.568 96.1261 331.84 95.6199C331.996 95.3282 332.363 94.9615 332.655 94.8051C333.164 94.5321 334.564 94.5208 367.51 94.5208C400.456 94.5208 401.857 94.5321 402.366 94.8051ZM347.727 99.4677C347.052 99.8204 346.814 100.059 346.45 100.752C346.08 101.455 346.016 101.729 346.086 102.333C346.132 102.735 346.274 103.265 346.4 103.51C346.666 104.025 366.35 125.842 367.075 126.426C367.34 126.64 368.789 127.555 370.296 128.461C372.726 129.922 373.031 130.151 372.996 130.486C372.421 136.018 375.127 139.226 381.129 140.125C381.729 140.215 384.154 140.332 386.519 140.385L390.82 140.482L391.075 140.091C391.216 139.876 391.288 139.587 391.235 139.449C391.182 139.31 390.213 138.503 389.081 137.655C387.95 136.807 386.825 135.877 386.581 135.589C385.767 134.626 385.281 133.331 385.115 131.682C384.851 129.055 384.001 127.899 381.363 126.58C380.385 126.09 379.795 125.899 379.094 125.842L378.148 125.766L376.265 122.634C375.14 120.763 374.111 119.241 373.709 118.855C372.052 117.265 350.868 99.5875 350.311 99.3296C349.433 98.9229 348.694 98.9625 347.727 99.4677ZM349.926 100.856C350.539 101.279 372.533 119.814 372.905 120.222C373.09 120.425 374.018 121.886 374.967 123.47L376.692 126.348L375.397 127.644L374.102 128.939L371.043 127.099L367.984 125.26L357.884 114.102C352.328 107.965 347.739 102.829 347.685 102.688C347.17 101.347 348.757 100.05 349.926 100.856ZM380.627 127.925C382.901 129.066 383.296 129.613 383.618 132.067C384.005 135.013 384.911 136.524 387.335 138.258L388.093 138.801L386.868 138.851C384.993 138.928 380.907 138.597 379.6 138.263C377.048 137.61 375.369 136.234 374.815 134.339C374.548 133.425 374.359 131.755 374.464 131.23C374.574 130.683 376.831 128.19 377.705 127.65C378.444 127.195 379.339 127.279 380.627 127.925ZM358.222 140.787C359.759 141.325 360.968 142.046 362.237 143.181C363.815 144.594 365.229 145.463 366.844 146.014L368.055 146.427L385.76 146.469L403.465 146.511L403.465 147.948C403.464 149.745 403.214 150.326 402.226 150.824L401.531 151.174H367.51H333.489L332.795 150.824C331.587 150.215 331.556 150.068 331.556 144.904L331.556 140.425L344.513 140.474C356.199 140.519 357.545 140.549 358.222 140.787ZM336.214 145.435C336.086 145.675 336.084 145.867 336.206 146.135C336.37 146.497 336.419 146.505 338.395 146.505C340.297 146.505 340.427 146.485 340.594 146.174C340.722 145.934 340.725 145.742 340.602 145.474C340.438 145.112 340.389 145.104 338.413 145.104C336.511 145.104 336.381 145.124 336.214 145.435ZM345.398 145.435C345.269 145.675 345.267 145.867 345.389 146.135C345.553 146.497 345.602 146.505 347.578 146.505C349.481 146.505 349.61 146.485 349.777 146.174C349.905 145.934 349.908 145.742 349.786 145.474C349.621 145.112 349.572 145.104 347.596 145.104C345.694 145.104 345.564 145.124 345.398 145.435ZM354.581 145.435C354.452 145.675 354.45 145.867 354.572 146.135C354.737 146.497 354.785 146.505 356.762 146.505C358.664 146.505 358.793 146.485 358.96 146.174C359.089 145.934 359.091 145.742 358.969 145.474C358.804 145.112 358.756 145.104 356.779 145.104C354.877 145.104 354.748 145.124 354.581 145.435ZM374.359 156.544V160.357H367.51H360.662V156.544V152.731H367.51H374.359V156.544ZM383.542 164.17V166.427H367.51H351.478V164.17V161.913H367.51H383.542V164.17Z" stroke="#3A0CA3" mask="url(#path-12-outside-1_508_251)"/>
<path fill-rule="evenodd" clip-rule="evenodd" d="M104.589 35.2185C101.419 35.902 98.7181 38.6605 98.1541 41.7919C98.0469 42.3872 97.9983 50.6946 98 68.1591C98.0022 89.4681 98.0364 93.8162 98.2081 94.626C98.7243 97.0615 100.472 99.269 102.711 100.314C103.382 100.627 104.321 100.955 104.799 101.042C106.022 101.266 164.973 101.266 166.196 101.042C169.365 100.463 172.118 97.7833 172.787 94.626C172.959 93.8162 172.993 89.4681 172.995 68.1591C172.997 50.6946 172.948 42.3872 172.841 41.7919C172.417 39.4363 170.594 37.0183 168.446 35.9611C166.353 34.9313 168.523 34.9941 135.424 35.0042C110.375 35.0119 105.388 35.0466 104.589 35.2185ZM165.679 37.6279C167.581 37.9884 169.128 39.1916 169.966 40.9606L170.434 41.948L170.479 47.1849L170.524 52.4217H135.498H100.471L100.516 47.1849L100.561 41.948L101.029 40.9606C101.841 39.2469 103.422 37.9871 105.201 37.637C106.133 37.4536 164.714 37.4448 165.679 37.6279ZM106.369 41.1557C103.902 41.6318 102.539 44.3495 103.62 46.6355C104.775 49.0777 108.017 49.6071 109.906 47.662C110.519 47.0306 111.035 45.7925 111.035 44.951C111.035 43.9996 110.515 42.8521 109.775 42.1703C108.758 41.2323 107.662 40.906 106.369 41.1557ZM117.626 41.4469C116.182 42.0998 115.284 43.4732 115.287 45.0242C115.294 48.4804 119.438 50.1846 121.885 47.7377C124.332 45.2902 122.623 41.1488 119.165 41.1488C118.594 41.1488 118.054 41.2534 117.626 41.4469ZM129.793 41.3955C129.422 41.5263 128.848 41.9182 128.462 42.3046C126.016 44.7507 127.721 48.8943 131.176 48.9014C133.337 48.9058 135.052 47.1907 135.052 45.0242C135.052 42.3208 132.384 40.4804 129.793 41.3955ZM108.142 44.0885C108.573 44.5464 108.645 45.0087 108.378 45.5962C108.159 46.0752 107.338 46.4636 106.795 46.3443C105.551 46.0713 105.343 44.3174 106.486 43.7469C107.12 43.4305 107.619 43.5336 108.142 44.0885ZM120.177 44.0833C120.707 44.7138 120.689 45.4265 120.128 45.9876C119.811 46.3046 119.561 46.4158 119.165 46.4158C117.946 46.4158 117.301 44.8773 118.159 44.0187C118.737 43.4414 119.662 43.471 120.177 44.0833ZM132.14 44.0608C132.719 44.64 132.737 45.4747 132.182 46.0297C131.323 46.8881 129.785 46.2427 129.785 45.0242C129.785 44.628 129.896 44.3778 130.213 44.0608C130.804 43.4699 131.549 43.4699 132.14 44.0608ZM170.507 74.2171C170.507 95.5276 170.553 94.451 169.58 95.9712C168.941 96.9696 168.176 97.625 166.999 98.1829L166.04 98.6375H135.498H104.956L103.997 98.1829C102.819 97.625 102.054 96.9696 101.415 95.9712C100.442 94.451 100.488 95.5276 100.488 74.2171V54.9119H135.498H170.507V74.2171ZM136.89 62.4192C136.533 62.7277 136.345 63.528 133.941 74.9372C131.612 85.9946 131.392 87.1635 131.569 87.5335C131.979 88.3889 133.06 88.4851 133.611 87.7152C133.777 87.4833 134.742 83.1976 136.367 75.4802C137.742 68.9474 138.867 63.4957 138.867 63.3655C138.867 62.9381 138.548 62.4179 138.185 62.2522C137.652 62.0095 137.314 62.0532 136.89 62.4192ZM126.851 67.3221C126.043 67.8844 118.642 74.2852 118.506 74.5399C118.233 75.0495 118.344 75.5413 118.842 76.0374C119.64 76.8307 126.711 82.8019 127.098 83.0091C127.54 83.2455 128.39 83.0133 128.614 82.5954C128.883 82.0925 128.779 81.4515 128.356 81.0027C128.135 80.7674 126.536 79.3738 124.804 77.9056C123.072 76.4373 121.636 75.1883 121.613 75.1297C121.59 75.0712 123.06 73.7554 124.879 72.2057C126.698 70.656 128.315 69.2496 128.473 69.0805C128.881 68.6425 128.847 67.8768 128.4 67.4297C127.975 67.0052 127.367 66.9629 126.851 67.3221ZM142.595 67.4297C142.148 67.8768 142.115 68.6425 142.523 69.0805C142.68 69.2496 144.297 70.656 146.116 72.2057C147.935 73.7554 149.405 75.0712 149.382 75.1297C149.359 75.1883 147.923 76.4373 146.191 77.9056C144.459 79.3738 142.86 80.7674 142.639 81.0027C142.216 81.4515 142.112 82.0925 142.381 82.5954C142.605 83.0133 143.455 83.2455 143.897 83.0091C144.284 82.8019 151.355 76.8307 152.153 76.0374C152.651 75.5413 152.762 75.0495 152.489 74.5399C152.353 74.2852 144.953 67.8844 144.144 67.3221C143.628 66.9629 143.02 67.0052 142.595 67.4297Z" fill="#3A0CA3"/>
</svg>
