<svg width="474" height="526" viewBox="0 0 474 526" fill="none" xmlns="http://www.w3.org/2000/svg">
<rect x="146.5" y="140.5" width="212" height="219" stroke="#333333" stroke-width="19"/>
<path d="M38 32C38 14.3269 52.3269 0 70 0H202C219.673 0 234 14.3269 234 32V196H70C52.3269 196 38 181.673 38 164V32Z" fill="white"/>
<path d="M270 99C270 76.9086 287.909 59 310 59H426C448.091 59 466 76.9086 466 99V215C466 237.091 448.091 255 426 255H270V99Z" fill="white"/>
<path d="M278 330H434C456.091 330 474 347.909 474 370V486C474 508.091 456.091 526 434 526H318C295.909 526 278 508.091 278 486V330Z" fill="white"/>
<rect y="232" width="243" height="243" rx="40" fill="white"/>
<path d="M84.9661 128.065V136.766C84.9602 137.973 84.5793 138.96 83.8235 139.728C83.0735 140.495 82.0539 140.926 80.7649 141.02L80.3166 141.037C78.9162 141.037 77.8 140.66 76.968 139.904C76.136 139.148 75.7141 138.108 75.7024 136.784V128.065H77.3723V136.731C77.3723 137.657 77.6272 138.377 78.137 138.893C78.6467 139.403 79.3733 139.658 80.3166 139.658C81.2717 139.658 82.0012 139.403 82.5051 138.893C83.0149 138.383 83.2698 137.665 83.2698 136.74V128.065H84.9661ZM93.4514 138.339C93.4514 137.9 93.2844 137.56 92.9504 137.32C92.6223 137.074 92.0451 136.863 91.2189 136.687C90.3986 136.511 89.7453 136.3 89.259 136.054C88.7785 135.808 88.4211 135.515 88.1867 135.175C87.9582 134.835 87.8439 134.431 87.8439 133.962C87.8439 133.183 88.1721 132.524 88.8283 131.985C89.4904 131.446 90.3342 131.176 91.3596 131.176C92.4377 131.176 93.3107 131.454 93.9787 132.011C94.6525 132.568 94.9895 133.28 94.9895 134.147H93.3547C93.3547 133.702 93.1643 133.318 92.7834 132.995C92.4084 132.673 91.9338 132.512 91.3596 132.512C90.7678 132.512 90.3049 132.641 89.9709 132.899C89.6369 133.157 89.4699 133.494 89.4699 133.91C89.4699 134.302 89.6252 134.598 89.9357 134.797C90.2463 134.996 90.8059 135.187 91.6145 135.369C92.4289 135.55 93.0881 135.767 93.592 136.019C94.0959 136.271 94.468 136.576 94.7082 136.933C94.9543 137.285 95.0773 137.715 95.0773 138.225C95.0773 139.075 94.7375 139.757 94.0578 140.273C93.3781 140.783 92.4963 141.037 91.4123 141.037C90.6506 141.037 89.9768 140.903 89.3908 140.633C88.8049 140.364 88.3449 139.989 88.0109 139.508C87.6828 139.022 87.5187 138.497 87.5187 137.935H89.1447C89.174 138.48 89.3908 138.913 89.7951 139.236C90.2053 139.552 90.7443 139.71 91.4123 139.71C92.0275 139.71 92.5197 139.587 92.8889 139.341C93.2639 139.089 93.4514 138.755 93.4514 138.339ZM101.682 141.037C100.393 141.037 99.3439 140.616 98.5353 139.772C97.7267 138.922 97.3224 137.788 97.3224 136.37V136.072C97.3224 135.128 97.5011 134.287 97.8586 133.549C98.2218 132.805 98.7257 132.225 99.3703 131.809C100.021 131.387 100.724 131.176 101.48 131.176C102.716 131.176 103.677 131.583 104.362 132.398C105.048 133.212 105.391 134.378 105.391 135.896V136.573H98.9484C98.9718 137.51 99.2443 138.269 99.7658 138.849C100.293 139.423 100.961 139.71 101.77 139.71C102.344 139.71 102.83 139.593 103.229 139.359C103.627 139.124 103.976 138.814 104.275 138.427L105.268 139.201C104.471 140.425 103.276 141.037 101.682 141.037ZM101.48 132.512C100.823 132.512 100.273 132.752 99.8273 133.233C99.382 133.707 99.1066 134.375 99.0011 135.237H103.765V135.114C103.718 134.287 103.495 133.649 103.097 133.198C102.698 132.741 102.159 132.512 101.48 132.512ZM112.417 132.811C112.171 132.77 111.904 132.749 111.617 132.749C110.551 132.749 109.827 133.203 109.446 134.112V140.862H107.82V131.352H109.402L109.429 132.451C109.962 131.601 110.718 131.176 111.696 131.176C112.013 131.176 112.253 131.217 112.417 131.299V132.811ZM124.413 135.685H121.407V140.862H119.711V128.065H123.947C125.389 128.065 126.496 128.393 127.27 129.049C128.049 129.705 128.439 130.661 128.439 131.914C128.439 132.711 128.222 133.406 127.788 133.997C127.36 134.589 126.763 135.032 125.995 135.325L129.001 140.756V140.862H127.19L124.413 135.685ZM121.407 134.305H124C124.838 134.305 125.503 134.088 125.995 133.655C126.493 133.221 126.742 132.641 126.742 131.914C126.742 131.123 126.505 130.517 126.03 130.095C125.562 129.673 124.882 129.459 123.991 129.453H121.407V134.305ZM135.043 141.037C133.754 141.037 132.705 140.616 131.896 139.772C131.088 138.922 130.684 137.788 130.684 136.37V136.072C130.684 135.128 130.862 134.287 131.22 133.549C131.583 132.805 132.087 132.225 132.731 131.809C133.382 131.387 134.085 131.176 134.841 131.176C136.077 131.176 137.038 131.583 137.724 132.398C138.409 133.212 138.752 134.378 138.752 135.896V136.573H132.31C132.333 137.51 132.605 138.269 133.127 138.849C133.654 139.423 134.322 139.71 135.131 139.71C135.705 139.71 136.191 139.593 136.59 139.359C136.988 139.124 137.337 138.814 137.636 138.427L138.629 139.201C137.832 140.425 136.637 141.037 135.043 141.037ZM134.841 132.512C134.185 132.512 133.634 132.752 133.188 133.233C132.743 133.707 132.468 134.375 132.362 135.237H137.126V135.114C137.079 134.287 136.856 133.649 136.458 133.198C136.06 132.741 135.521 132.512 134.841 132.512ZM146.719 138.339C146.719 137.9 146.552 137.56 146.218 137.32C145.89 137.074 145.312 136.863 144.486 136.687C143.666 136.511 143.013 136.3 142.526 136.054C142.046 135.808 141.688 135.515 141.454 135.175C141.226 134.835 141.111 134.431 141.111 133.962C141.111 133.183 141.439 132.524 142.096 131.985C142.758 131.446 143.602 131.176 144.627 131.176C145.705 131.176 146.578 131.454 147.246 132.011C147.92 132.568 148.257 133.28 148.257 134.147H146.622C146.622 133.702 146.432 133.318 146.051 132.995C145.676 132.673 145.201 132.512 144.627 132.512C144.035 132.512 143.572 132.641 143.238 132.899C142.904 133.157 142.737 133.494 142.737 133.91C142.737 134.302 142.893 134.598 143.203 134.797C143.514 134.996 144.073 135.187 144.882 135.369C145.696 135.55 146.355 135.767 146.859 136.019C147.363 136.271 147.735 136.576 147.976 136.933C148.222 137.285 148.345 137.715 148.345 138.225C148.345 139.075 148.005 139.757 147.325 140.273C146.645 140.783 145.764 141.037 144.68 141.037C143.918 141.037 143.244 140.903 142.658 140.633C142.072 140.364 141.612 139.989 141.278 139.508C140.95 139.022 140.786 138.497 140.786 137.935H142.412C142.441 138.48 142.658 138.913 143.062 139.236C143.473 139.552 144.012 139.71 144.68 139.71C145.295 139.71 145.787 139.587 146.156 139.341C146.531 139.089 146.719 138.755 146.719 138.339ZM154.949 141.037C153.66 141.037 152.611 140.616 151.803 139.772C150.994 138.922 150.59 137.788 150.59 136.37V136.072C150.59 135.128 150.768 134.287 151.126 133.549C151.489 132.805 151.993 132.225 152.638 131.809C153.288 131.387 153.991 131.176 154.747 131.176C155.983 131.176 156.944 131.583 157.63 132.398C158.315 133.212 158.658 134.378 158.658 135.896V136.573H152.216C152.239 137.51 152.512 138.269 153.033 138.849C153.56 139.423 154.228 139.71 155.037 139.71C155.611 139.71 156.098 139.593 156.496 139.359C156.894 139.124 157.243 138.814 157.542 138.427L158.535 139.201C157.738 140.425 156.543 141.037 154.949 141.037ZM154.747 132.512C154.091 132.512 153.54 132.752 153.095 133.233C152.649 133.707 152.374 134.375 152.268 135.237H157.032V135.114C156.985 134.287 156.763 133.649 156.364 133.198C155.966 132.741 155.427 132.512 154.747 132.512ZM166.959 140.862C166.865 140.674 166.789 140.34 166.73 139.86C165.974 140.645 165.072 141.037 164.023 141.037C163.086 141.037 162.315 140.774 161.712 140.246C161.114 139.713 160.815 139.039 160.815 138.225C160.815 137.235 161.19 136.467 161.94 135.922C162.696 135.371 163.757 135.096 165.122 135.096H166.704V134.349C166.704 133.781 166.534 133.329 166.194 132.995C165.854 132.656 165.353 132.486 164.691 132.486C164.111 132.486 163.625 132.632 163.232 132.925C162.84 133.218 162.643 133.573 162.643 133.989H161.009C161.009 133.514 161.176 133.057 161.51 132.618C161.849 132.172 162.307 131.821 162.881 131.563C163.461 131.305 164.097 131.176 164.788 131.176C165.884 131.176 166.742 131.452 167.363 132.002C167.984 132.547 168.307 133.3 168.33 134.261V138.638C168.33 139.511 168.441 140.205 168.664 140.721V140.862H166.959ZM164.261 139.622C164.77 139.622 165.254 139.491 165.711 139.227C166.168 138.963 166.499 138.62 166.704 138.199V136.247H165.43C163.437 136.247 162.441 136.83 162.441 137.996C162.441 138.506 162.611 138.905 162.951 139.192C163.291 139.479 163.727 139.622 164.261 139.622ZM176.015 132.811C175.769 132.77 175.503 132.749 175.216 132.749C174.149 132.749 173.426 133.203 173.045 134.112V140.862H171.419V131.352H173.001L173.027 132.451C173.56 131.601 174.316 131.176 175.295 131.176C175.611 131.176 175.851 131.217 176.015 131.299V132.811ZM181.697 139.71C182.277 139.71 182.784 139.535 183.218 139.183C183.651 138.831 183.891 138.392 183.938 137.865H185.476C185.447 138.41 185.26 138.928 184.914 139.42C184.568 139.912 184.105 140.305 183.525 140.598C182.951 140.891 182.342 141.037 181.697 141.037C180.402 141.037 179.371 140.607 178.603 139.745C177.842 138.878 177.461 137.695 177.461 136.195V135.922C177.461 134.996 177.631 134.173 177.971 133.453C178.31 132.732 178.797 132.172 179.429 131.774C180.068 131.375 180.821 131.176 181.688 131.176C182.755 131.176 183.639 131.495 184.343 132.134C185.052 132.773 185.429 133.602 185.476 134.621H183.938C183.891 134.006 183.657 133.502 183.235 133.11C182.819 132.711 182.304 132.512 181.688 132.512C180.862 132.512 180.221 132.811 179.763 133.409C179.312 134 179.087 134.859 179.087 135.984V136.291C179.087 137.387 179.312 138.231 179.763 138.823C180.215 139.414 180.859 139.71 181.697 139.71ZM189.47 132.503C190.191 131.619 191.129 131.176 192.283 131.176C194.293 131.176 195.306 132.31 195.324 134.578V140.862H193.698V134.569C193.692 133.883 193.534 133.376 193.223 133.048C192.919 132.72 192.441 132.556 191.791 132.556C191.263 132.556 190.801 132.697 190.402 132.978C190.004 133.259 189.693 133.628 189.47 134.085V140.862H187.844V127.362H189.47V132.503Z" fill="black"/>
<path d="M140.027 52.1348C135.73 52.584 131.595 54.2061 128.048 56.8264C126.561 57.9244 124.213 60.2452 123.152 61.6677C120.841 64.7621 119.267 68.3681 118.567 72.2112C118.193 74.27 118.193 78.3876 118.567 80.4464C119.279 84.3145 120.766 87.7708 123.039 90.8028L124.051 92.1504L121.952 94.2467L119.854 96.3429L119.129 96.1058C117.581 95.6067 115.707 95.8812 114.333 96.7921C114.033 96.9917 111.56 99.3874 108.837 102.12C103.416 107.56 103.391 107.598 103.079 109.382C102.779 111.154 103.341 112.901 104.653 114.211C105.964 115.521 107.713 116.082 109.487 115.783C111.285 115.471 111.298 115.459 116.869 109.919C122.415 104.403 122.552 104.229 122.914 102.507C123.127 101.521 123.077 100.772 122.739 99.6869L122.539 99.0256L124.638 96.9293L126.736 94.8331L128.085 95.8438C131.121 98.1147 134.581 99.5995 138.453 100.311C140.514 100.685 144.636 100.685 146.697 100.311C150.544 99.612 154.141 98.0523 157.289 95.7065C158.538 94.7707 160.924 92.3875 161.923 91.0649C164.284 87.9579 165.87 84.327 166.582 80.4464C166.957 78.3876 166.957 74.27 166.582 72.2112C164.259 59.5215 152.73 50.7997 140.027 52.1348ZM146.06 56.0403C150.344 56.8264 154.054 58.7479 157.064 61.7301C160.149 64.7995 162.073 68.4929 162.897 72.8725C163.184 74.4697 163.184 78.188 162.897 79.7851C161.261 88.5319 154.791 94.9953 146.035 96.6299C144.436 96.9169 140.714 96.9169 139.115 96.6299C134.73 95.8064 131.021 93.8723 127.96 90.7904C118.83 81.6069 120.379 66.4216 131.183 59.1971C133.806 57.4502 136.979 56.2774 140.289 55.8656C141.488 55.7159 144.811 55.8157 146.06 56.0403ZM118.055 99.7243C118.692 99.9988 118.93 100.223 119.154 100.847C119.329 101.284 119.342 101.471 119.217 101.92C119.092 102.407 118.567 102.981 114.495 107.061C111.972 109.594 109.699 111.765 109.449 111.902C108.85 112.202 108.337 112.202 107.725 111.89C107.163 111.603 106.726 110.892 106.726 110.268C106.726 110.056 106.839 109.681 106.963 109.419C107.101 109.17 109.249 106.924 111.747 104.428C116.869 99.325 116.956 99.2626 118.055 99.7243Z" fill="black"/>
<path d="M140.638 59.6973C135.642 60.7579 132.382 65.7239 133.406 70.6898C133.718 72.2121 134.555 73.9215 135.429 74.8573C135.604 75.0444 135.729 75.2316 135.692 75.2565C135.667 75.2815 135.279 75.4811 134.83 75.7057C132.344 76.9535 130.52 78.8375 129.321 81.3704C128.597 82.9301 128.335 84.1154 128.247 86.1243C128.185 87.7463 128.197 87.9086 128.447 88.4076C128.622 88.757 128.872 89.0066 129.209 89.1812C129.696 89.4308 129.921 89.4308 142.574 89.4308C155.227 89.4308 155.452 89.4308 155.939 89.1812C156.276 89.0066 156.526 88.757 156.701 88.4076C156.95 87.9086 156.963 87.7463 156.9 86.1243C156.813 84.0655 156.551 82.9051 155.764 81.2581C154.602 78.8126 152.741 76.916 150.318 75.7057C149.868 75.4811 149.481 75.2815 149.456 75.2565C149.419 75.2316 149.544 75.0444 149.718 74.8573C150.143 74.4081 150.843 73.2976 151.18 72.5365C151.604 71.5757 151.817 70.6275 151.904 69.3423C152.242 64.0394 147.845 59.4353 142.486 59.4977C141.949 59.4977 141.125 59.585 140.638 59.6973ZM143.723 63.3656C144.81 63.5902 145.696 64.0893 146.508 64.9004C149.731 68.132 147.982 73.5846 143.461 74.3582C141.7 74.6576 139.963 74.0962 138.639 72.7736C136.416 70.5775 136.416 67.1088 138.627 64.9128C140.013 63.5279 141.849 62.9789 143.723 63.3656ZM146.758 78.3884C148.245 78.7003 149.606 79.4614 150.755 80.6218C152.104 81.9693 152.816 83.3418 153.128 85.2134L153.203 85.6876H142.574H131.944L132.019 85.2134C132.332 83.3418 133.044 81.9693 134.393 80.6218C135.529 79.4739 136.903 78.7003 138.327 78.4008C139.501 78.1388 145.559 78.1388 146.758 78.3884Z" fill="black"/>
<path d="M316.113 197.62L319.769 187.065H321.614L316.868 199.862H315.374L310.637 187.065H312.474L316.113 197.62ZM325.389 199.862H323.763V190.352H325.389V199.862ZM323.631 187.829C323.631 187.566 323.71 187.343 323.868 187.161C324.032 186.98 324.273 186.889 324.589 186.889C324.905 186.889 325.146 186.98 325.31 187.161C325.474 187.343 325.556 187.566 325.556 187.829C325.556 188.093 325.474 188.313 325.31 188.489C325.146 188.664 324.905 188.752 324.589 188.752C324.273 188.752 324.032 188.664 323.868 188.489C323.71 188.313 323.631 188.093 323.631 187.829ZM334.076 197.339C334.076 196.9 333.909 196.56 333.575 196.32C333.247 196.074 332.67 195.863 331.844 195.687C331.024 195.511 330.37 195.3 329.884 195.054C329.403 194.808 329.046 194.515 328.812 194.175C328.583 193.835 328.469 193.431 328.469 192.962C328.469 192.183 328.797 191.524 329.453 190.985C330.115 190.446 330.959 190.176 331.985 190.176C333.063 190.176 333.936 190.454 334.604 191.011C335.277 191.568 335.614 192.28 335.614 193.147H333.98C333.98 192.702 333.789 192.318 333.408 191.995C333.033 191.673 332.559 191.512 331.985 191.512C331.393 191.512 330.93 191.641 330.596 191.899C330.262 192.157 330.095 192.494 330.095 192.91C330.095 193.302 330.25 193.598 330.561 193.797C330.871 193.996 331.431 194.187 332.239 194.369C333.054 194.55 333.713 194.767 334.217 195.019C334.721 195.271 335.093 195.576 335.333 195.933C335.579 196.285 335.702 196.715 335.702 197.225C335.702 198.075 335.362 198.757 334.683 199.273C334.003 199.783 333.121 200.037 332.037 200.037C331.276 200.037 330.602 199.903 330.016 199.633C329.43 199.364 328.97 198.989 328.636 198.508C328.308 198.022 328.144 197.497 328.144 196.935H329.77C329.799 197.48 330.016 197.913 330.42 198.236C330.83 198.552 331.369 198.71 332.037 198.71C332.652 198.71 333.145 198.587 333.514 198.341C333.889 198.089 334.076 197.755 334.076 197.339ZM344.232 198.921C343.599 199.665 342.67 200.037 341.445 200.037C340.432 200.037 339.658 199.745 339.125 199.159C338.598 198.567 338.331 197.694 338.325 196.539V190.352H339.951V196.495C339.951 197.937 340.537 198.658 341.709 198.658C342.951 198.658 343.777 198.195 344.188 197.269V190.352H345.814V199.862H344.267L344.232 198.921ZM354.703 199.862C354.609 199.674 354.533 199.34 354.475 198.86C353.719 199.645 352.816 200.037 351.768 200.037C350.83 200.037 350.06 199.774 349.456 199.246C348.858 198.713 348.56 198.039 348.56 197.225C348.56 196.235 348.935 195.467 349.685 194.922C350.441 194.371 351.501 194.096 352.866 194.096H354.448V193.349C354.448 192.781 354.278 192.329 353.939 191.995C353.599 191.656 353.098 191.486 352.436 191.486C351.856 191.486 351.369 191.632 350.977 191.925C350.584 192.218 350.388 192.573 350.388 192.989H348.753C348.753 192.514 348.92 192.057 349.254 191.618C349.594 191.172 350.051 190.821 350.625 190.563C351.205 190.305 351.841 190.176 352.532 190.176C353.628 190.176 354.486 190.452 355.107 191.002C355.729 191.547 356.051 192.3 356.074 193.261V197.638C356.074 198.511 356.186 199.205 356.408 199.721V199.862H354.703ZM352.005 198.622C352.515 198.622 352.998 198.491 353.455 198.227C353.912 197.963 354.243 197.62 354.448 197.199V195.247H353.174C351.182 195.247 350.186 195.83 350.186 196.996C350.186 197.506 350.356 197.905 350.695 198.192C351.035 198.479 351.472 198.622 352.005 198.622ZM360.93 199.862H359.304V186.362H360.93V199.862ZM369.34 199.862V187.065H372.952C374.065 187.065 375.05 187.311 375.905 187.803C376.761 188.295 377.42 188.995 377.883 189.904C378.352 190.812 378.589 191.855 378.595 193.033V193.85C378.595 195.057 378.36 196.115 377.892 197.023C377.429 197.931 376.764 198.628 375.896 199.115C375.035 199.601 374.03 199.85 372.882 199.862H369.34ZM371.027 188.453V198.482H372.803C374.103 198.482 375.114 198.078 375.835 197.269C376.561 196.46 376.925 195.309 376.925 193.815V193.068C376.925 191.615 376.582 190.487 375.896 189.684C375.217 188.875 374.25 188.465 372.996 188.453H371.027ZM385.384 200.037C384.095 200.037 383.046 199.616 382.237 198.772C381.429 197.922 381.024 196.788 381.024 195.37V195.072C381.024 194.128 381.203 193.287 381.56 192.549C381.924 191.805 382.428 191.225 383.072 190.809C383.723 190.387 384.426 190.176 385.182 190.176C386.418 190.176 387.379 190.583 388.064 191.398C388.75 192.212 389.093 193.378 389.093 194.896V195.573H382.65C382.674 196.51 382.946 197.269 383.468 197.849C383.995 198.423 384.663 198.71 385.472 198.71C386.046 198.71 386.532 198.593 386.931 198.359C387.329 198.124 387.678 197.814 387.976 197.427L388.97 198.201C388.173 199.425 386.977 200.037 385.384 200.037ZM385.182 191.512C384.525 191.512 383.975 191.752 383.529 192.233C383.084 192.707 382.809 193.375 382.703 194.237H387.467V194.114C387.42 193.287 387.197 192.649 386.799 192.198C386.4 191.741 385.861 191.512 385.182 191.512ZM397.059 197.339C397.059 196.9 396.892 196.56 396.558 196.32C396.23 196.074 395.653 195.863 394.827 195.687C394.007 195.511 393.353 195.3 392.867 195.054C392.387 194.808 392.029 194.515 391.795 194.175C391.566 193.835 391.452 193.431 391.452 192.962C391.452 192.183 391.78 191.524 392.436 190.985C393.099 190.446 393.942 190.176 394.968 190.176C396.046 190.176 396.919 190.454 397.587 191.011C398.261 191.568 398.598 192.28 398.598 193.147H396.963C396.963 192.702 396.772 192.318 396.391 191.995C396.016 191.673 395.542 191.512 394.968 191.512C394.376 191.512 393.913 191.641 393.579 191.899C393.245 192.157 393.078 192.494 393.078 192.91C393.078 193.302 393.233 193.598 393.544 193.797C393.854 193.996 394.414 194.187 395.223 194.369C396.037 194.55 396.696 194.767 397.2 195.019C397.704 195.271 398.076 195.576 398.316 195.933C398.562 196.285 398.685 196.715 398.685 197.225C398.685 198.075 398.346 198.757 397.666 199.273C396.986 199.783 396.104 200.037 395.02 200.037C394.259 200.037 393.585 199.903 392.999 199.633C392.413 199.364 391.953 198.989 391.619 198.508C391.291 198.022 391.127 197.497 391.127 196.935H392.753C392.782 197.48 392.999 197.913 393.403 198.236C393.813 198.552 394.352 198.71 395.02 198.71C395.636 198.71 396.128 198.587 396.497 198.341C396.872 198.089 397.059 197.755 397.059 197.339ZM403.11 199.862H401.484V190.352H403.11V199.862ZM401.352 187.829C401.352 187.566 401.431 187.343 401.59 187.161C401.754 186.98 401.994 186.889 402.31 186.889C402.627 186.889 402.867 186.98 403.031 187.161C403.195 187.343 403.277 187.566 403.277 187.829C403.277 188.093 403.195 188.313 403.031 188.489C402.867 188.664 402.627 188.752 402.31 188.752C401.994 188.752 401.754 188.664 401.59 188.489C401.431 188.313 401.352 188.093 401.352 187.829ZM405.874 195.028C405.874 193.545 406.217 192.368 406.902 191.495C407.588 190.616 408.496 190.176 409.627 190.176C410.787 190.176 411.692 190.586 412.343 191.407L412.422 190.352H413.907V199.633C413.907 200.864 413.541 201.833 412.808 202.542C412.082 203.251 411.103 203.606 409.873 203.606C409.187 203.606 408.516 203.459 407.86 203.166C407.204 202.873 406.703 202.472 406.357 201.962L407.201 200.987C407.898 201.848 408.751 202.279 409.759 202.279C410.55 202.279 411.165 202.056 411.604 201.611C412.05 201.165 412.272 200.538 412.272 199.73V198.912C411.622 199.662 410.734 200.037 409.609 200.037C408.496 200.037 407.594 199.589 406.902 198.693C406.217 197.796 405.874 196.575 405.874 195.028ZM407.509 195.212C407.509 196.285 407.728 197.128 408.168 197.744C408.607 198.353 409.222 198.658 410.013 198.658C411.039 198.658 411.792 198.192 412.272 197.26V192.918C411.774 192.01 411.027 191.556 410.031 191.556C409.24 191.556 408.622 191.864 408.177 192.479C407.731 193.094 407.509 194.005 407.509 195.212ZM418.446 190.352L418.499 191.547C419.225 190.633 420.175 190.176 421.346 190.176C423.356 190.176 424.37 191.31 424.387 193.578V199.862H422.761V193.569C422.756 192.883 422.597 192.376 422.287 192.048C421.982 191.72 421.505 191.556 420.854 191.556C420.327 191.556 419.864 191.697 419.466 191.978C419.067 192.259 418.757 192.628 418.534 193.085V199.862H416.908V190.352H418.446Z" fill="black"/>
<path d="M364.432 111.077C363.869 111.252 363.369 111.565 362.982 111.989C362.307 112.701 362.145 113.164 362.082 114.488L362.032 115.712H353.884L345.748 115.699L345.411 115.15C344.348 113.401 341.899 113.126 340.474 114.613C339.212 115.924 339.287 118.023 340.624 119.197C341.286 119.772 341.836 119.972 342.761 119.972C344.011 119.972 344.948 119.36 345.748 118.035C345.86 117.848 346.348 117.836 351.434 117.861L356.996 117.898L355.558 118.61C346.585 123.02 340.637 131.589 339.674 141.52L339.524 143.044L338.874 143.107C337.762 143.219 336.812 143.869 336.275 144.881C336.025 145.343 336 145.555 336 147.754C336 149.965 336.025 150.165 336.275 150.64C336.662 151.364 337.487 152.039 338.287 152.264C339.274 152.551 342.686 152.463 343.311 152.139C344.098 151.726 344.498 151.352 344.873 150.677L345.248 150.003V147.754C345.248 145.655 345.236 145.468 344.961 144.918C344.436 143.869 343.198 143.069 342.086 143.069H341.661L341.749 142.033C342.036 138.647 342.936 135.474 344.461 132.389C347.573 126.168 352.996 121.458 359.57 119.285C360.495 118.985 361.42 118.698 361.632 118.648L362.02 118.573L362.082 119.485C362.145 120.521 362.432 121.183 363.082 121.783C363.969 122.62 364.044 122.645 367.581 122.682C371.293 122.732 371.83 122.645 372.692 121.87C373.405 121.221 373.705 120.571 373.78 119.485L373.842 118.573L374.23 118.648C374.442 118.698 375.379 118.985 376.304 119.285C381.965 121.158 386.827 124.956 390.114 130.078C390.989 131.427 392.338 134.3 392.851 135.862C393.401 137.548 393.863 139.734 394.038 141.433C394.225 143.169 394.238 143.069 393.763 143.069C392.663 143.069 391.426 143.869 390.901 144.918C390.626 145.468 390.614 145.655 390.614 147.754C390.614 149.715 390.639 150.065 390.851 150.44C391.288 151.264 391.688 151.689 392.338 152.026C392.951 152.339 393.113 152.364 394.938 152.414C397.25 152.476 397.95 152.326 398.774 151.614C399.774 150.765 399.862 150.465 399.862 147.754C399.862 145.555 399.837 145.343 399.587 144.881C399.049 143.869 398.1 143.219 396.987 143.107L396.337 143.044L396.187 141.52C395.563 135.037 392.801 129.053 388.302 124.406C386.065 122.095 383.365 120.122 380.453 118.685L378.866 117.898L384.427 117.861C389.514 117.836 390.001 117.848 390.114 118.035C390.914 119.36 391.851 119.972 393.101 119.972C394.025 119.972 394.575 119.772 395.238 119.197C396.575 118.023 396.65 115.924 395.388 114.613C393.963 113.126 391.513 113.401 390.451 115.15L390.114 115.699L381.978 115.712H373.83L373.78 114.488C373.717 113.126 373.505 112.564 372.78 111.889C371.88 111.04 371.843 111.027 368.118 111.002C366.269 110.99 364.607 111.027 364.432 111.077Z" fill="black"/>
<path d="M364.919 128.179C364.682 128.429 361.92 131.939 358.783 135.974C354.046 142.033 353.059 143.369 353.059 143.682C353.059 143.931 353.384 144.668 353.959 145.705C356.058 149.528 357.446 153.788 357.995 158.06C358.27 160.121 358.27 160.146 358.558 160.433C358.808 160.683 359.008 160.683 367.931 160.683C376.854 160.683 377.054 160.683 377.304 160.433C377.591 160.146 377.616 160.034 377.804 158.372C378.304 154.05 379.841 149.378 382.103 145.343C382.84 144.019 382.94 143.569 382.59 143.069C381.815 141.945 370.743 127.929 370.555 127.829C370.18 127.629 369.743 127.679 369.381 127.967L369.056 128.216V135.962C369.056 143.407 369.068 143.707 369.293 143.931C369.431 144.069 369.73 144.269 369.98 144.381C370.768 144.756 371.518 145.53 371.955 146.417C372.33 147.179 372.367 147.342 372.367 148.441C372.367 149.878 372.13 150.49 371.18 151.489C370.255 152.476 369.306 152.876 367.931 152.876C366.556 152.876 365.606 152.476 364.682 151.489C363.732 150.49 363.494 149.878 363.494 148.441C363.494 147.342 363.532 147.179 363.907 146.417C364.344 145.53 365.094 144.756 365.881 144.381C366.131 144.269 366.431 144.069 366.569 143.931C366.794 143.707 366.806 143.407 366.806 135.974V128.241L366.519 127.979C366.044 127.529 365.419 127.604 364.919 128.179Z" fill="black"/>
<path d="M356.996 162.982C355.796 163.357 354.909 164.131 354.346 165.28L353.996 165.992V168.866C353.996 171.551 354.009 171.776 354.271 172.326C354.646 173.15 355.583 174.112 356.421 174.512L357.121 174.862H367.931H378.741L379.328 174.587C380.153 174.212 381.116 173.275 381.516 172.438L381.865 171.739V168.866C381.865 165.992 381.865 165.992 381.528 165.305C381.091 164.418 380.316 163.644 379.441 163.207L378.741 162.869L368.118 162.844C359.795 162.832 357.383 162.857 356.996 162.982Z" fill="black"/>
<path d="M330.242 465.852V470.862H328.555V458.065H333.275C334.675 458.065 335.771 458.422 336.562 459.137C337.359 459.852 337.757 460.798 337.757 461.976C337.757 463.218 337.367 464.176 336.588 464.85C335.815 465.518 334.704 465.852 333.257 465.852H330.242ZM330.242 464.472H333.275C334.177 464.472 334.868 464.261 335.349 463.839C335.829 463.411 336.07 462.796 336.07 461.994C336.07 461.232 335.829 460.622 335.349 460.165C334.868 459.708 334.209 459.471 333.371 459.453H330.242V464.472ZM344.792 462.811C344.546 462.77 344.279 462.749 343.992 462.749C342.926 462.749 342.202 463.203 341.821 464.112V470.862H340.195V461.352H341.777L341.804 462.451C342.337 461.601 343.093 461.176 344.071 461.176C344.388 461.176 344.628 461.217 344.792 461.299V462.811ZM346.229 466.019C346.229 465.087 346.41 464.249 346.774 463.505C347.143 462.761 347.652 462.187 348.303 461.783C348.959 461.378 349.706 461.176 350.544 461.176C351.839 461.176 352.885 461.624 353.682 462.521C354.484 463.417 354.886 464.61 354.886 466.098V466.212C354.886 467.138 354.707 467.97 354.35 468.708C353.998 469.441 353.491 470.012 352.829 470.422C352.173 470.832 351.417 471.037 350.562 471.037C349.273 471.037 348.227 470.589 347.424 469.693C346.627 468.796 346.229 467.61 346.229 466.133V466.019ZM347.863 466.212C347.863 467.267 348.107 468.114 348.593 468.752C349.085 469.391 349.741 469.71 350.562 469.71C351.388 469.71 352.044 469.388 352.53 468.744C353.017 468.093 353.26 467.185 353.26 466.019C353.26 464.976 353.011 464.132 352.513 463.488C352.021 462.837 351.364 462.512 350.544 462.512C349.741 462.512 349.094 462.831 348.602 463.47C348.109 464.109 347.863 465.023 347.863 466.212ZM359.671 459.049V461.352H361.446V462.609H359.671V468.506C359.671 468.887 359.75 469.174 359.908 469.368C360.066 469.555 360.336 469.649 360.717 469.649C360.904 469.649 361.162 469.614 361.49 469.543V470.862C361.063 470.979 360.647 471.037 360.242 471.037C359.516 471.037 358.968 470.818 358.599 470.378C358.23 469.939 358.045 469.315 358.045 468.506V462.609H356.314V461.352H358.045V459.049H359.671ZM363.287 466.019C363.287 465.087 363.469 464.249 363.832 463.505C364.201 462.761 364.711 462.187 365.361 461.783C366.018 461.378 366.765 461.176 367.603 461.176C368.897 461.176 369.943 461.624 370.74 462.521C371.543 463.417 371.944 464.61 371.944 466.098V466.212C371.944 467.138 371.766 467.97 371.408 468.708C371.057 469.441 370.55 470.012 369.888 470.422C369.231 470.832 368.476 471.037 367.62 471.037C366.331 471.037 365.285 470.589 364.482 469.693C363.686 468.796 363.287 467.61 363.287 466.133V466.019ZM364.922 466.212C364.922 467.267 365.165 468.114 365.651 468.752C366.144 469.391 366.8 469.71 367.62 469.71C368.446 469.71 369.103 469.388 369.589 468.744C370.075 468.093 370.318 467.185 370.318 466.019C370.318 464.976 370.069 464.132 369.571 463.488C369.079 462.837 368.423 462.512 367.603 462.512C366.8 462.512 366.152 462.831 365.66 463.47C365.168 464.109 364.922 465.023 364.922 466.212ZM376.729 459.049V461.352H378.505V462.609H376.729V468.506C376.729 468.887 376.809 469.174 376.967 469.368C377.125 469.555 377.395 469.649 377.775 469.649C377.963 469.649 378.221 469.614 378.549 469.543V470.862C378.121 470.979 377.705 471.037 377.301 471.037C376.574 471.037 376.026 470.818 375.657 470.378C375.288 469.939 375.104 469.315 375.104 468.506V462.609H373.372V461.352H375.104V459.049H376.729ZM384.063 468.48L386.278 461.352H388.019L384.195 472.329C383.603 473.911 382.663 474.703 381.374 474.703L381.066 474.676L380.46 474.562V473.244L380.899 473.279C381.45 473.279 381.878 473.167 382.183 472.945C382.493 472.722 382.748 472.315 382.947 471.723L383.308 470.756L379.915 461.352H381.69L384.063 468.48ZM398.051 466.212C398.051 467.66 397.72 468.826 397.058 469.71C396.395 470.595 395.499 471.037 394.368 471.037C393.214 471.037 392.306 470.671 391.643 469.939V474.518H390.017V461.352H391.503L391.582 462.407C392.244 461.586 393.164 461.176 394.342 461.176C395.484 461.176 396.387 461.607 397.049 462.468C397.717 463.329 398.051 464.528 398.051 466.063V466.212ZM396.425 466.028C396.425 464.955 396.196 464.109 395.739 463.488C395.282 462.867 394.655 462.556 393.858 462.556C392.874 462.556 392.136 462.993 391.643 463.866V468.41C392.13 469.277 392.874 469.71 393.876 469.71C394.655 469.71 395.273 469.403 395.73 468.787C396.193 468.166 396.425 467.246 396.425 466.028ZM402.432 470.862H400.806V461.352H402.432V470.862ZM400.674 458.829C400.674 458.566 400.753 458.343 400.911 458.161C401.075 457.98 401.315 457.889 401.632 457.889C401.948 457.889 402.188 457.98 402.352 458.161C402.516 458.343 402.599 458.566 402.599 458.829C402.599 459.093 402.516 459.313 402.352 459.489C402.188 459.664 401.948 459.752 401.632 459.752C401.315 459.752 401.075 459.664 400.911 459.489C400.753 459.313 400.674 459.093 400.674 458.829ZM407.12 461.352L407.173 462.547C407.899 461.633 408.848 461.176 410.02 461.176C412.03 461.176 413.044 462.31 413.061 464.578V470.862H411.435V464.569C411.43 463.883 411.271 463.376 410.961 463.048C410.656 462.72 410.179 462.556 409.528 462.556C409.001 462.556 408.538 462.697 408.139 462.978C407.741 463.259 407.431 463.628 407.208 464.085V470.862H405.582V461.352H407.12ZM415.667 466.028C415.667 464.545 416.01 463.368 416.695 462.495C417.381 461.616 418.289 461.176 419.42 461.176C420.58 461.176 421.485 461.586 422.136 462.407L422.215 461.352H423.7V470.633C423.7 471.864 423.334 472.833 422.601 473.542C421.875 474.251 420.896 474.606 419.666 474.606C418.98 474.606 418.309 474.459 417.653 474.166C416.997 473.873 416.496 473.472 416.15 472.962L416.994 471.987C417.691 472.848 418.544 473.279 419.552 473.279C420.343 473.279 420.958 473.056 421.397 472.611C421.843 472.165 422.065 471.538 422.065 470.73V469.912C421.415 470.662 420.527 471.037 419.402 471.037C418.289 471.037 417.387 470.589 416.695 469.693C416.01 468.796 415.667 467.575 415.667 466.028ZM417.302 466.212C417.302 467.285 417.521 468.128 417.961 468.744C418.4 469.353 419.015 469.658 419.806 469.658C420.832 469.658 421.585 469.192 422.065 468.26V463.918C421.567 463.01 420.82 462.556 419.824 462.556C419.033 462.556 418.415 462.864 417.97 463.479C417.524 464.094 417.302 465.005 417.302 466.212Z" fill="black"/>
<path d="M346.974 382.145C345.875 382.494 344.775 383.481 344.275 384.568L344 385.155V403.267V421.379L344.412 422.216C344.862 423.128 345.487 423.752 346.424 424.215L346.999 424.502H357.81H368.62L369.282 424.152C370.157 423.69 370.882 422.941 371.294 422.079L371.619 421.379L371.657 414.959L371.694 408.538L372.557 408.601C373.206 408.651 373.556 408.751 373.906 408.988C374.744 409.538 374.806 409.8 374.806 413.035C374.806 417.057 374.969 417.819 376.081 419.018C376.843 419.855 377.743 420.23 379.08 420.292L380.18 420.342V431.247C380.18 441.84 380.192 442.177 380.43 442.964C380.755 444.013 381.63 445.012 382.654 445.512L383.367 445.862H394.052H404.737L405.437 445.512C406.275 445.112 407.212 444.15 407.587 443.326L407.862 442.739V424.627V406.515L407.449 405.678C406.999 404.766 406.374 404.142 405.437 403.679L404.862 403.392H394.052H383.242L382.579 403.742C381.705 404.204 380.98 404.953 380.567 405.815L380.242 406.515L380.205 412.373L380.167 418.219L379.255 418.169C378.493 418.132 378.268 418.069 377.893 417.782C377.081 417.17 377.056 417.032 377.056 413.86C377.056 412.298 377.006 410.662 376.943 410.225C376.781 409.188 376.381 408.388 375.656 407.676C374.919 406.952 373.956 406.577 372.657 406.49L371.682 406.415V396.085C371.682 386.054 371.669 385.717 371.432 384.93C371.107 383.881 370.232 382.882 369.207 382.382L368.495 382.032L357.997 382.007C349.599 381.982 347.399 382.02 346.974 382.145ZM368.607 384.518C369.445 385.143 369.557 385.58 369.557 388.178V390.464H357.81H346.062V388.165C346.062 385.717 346.125 385.38 346.662 384.793C347.337 384.068 346.874 384.093 357.947 384.131L368.145 384.156L368.607 384.518ZM369.557 399.52V406.452H367.333H365.108L364.683 405.79C364.371 405.328 364.046 405.028 363.558 404.766L362.871 404.391L358.085 404.354C352.448 404.316 352.298 404.329 351.311 405.328C349.674 406.952 350.211 409.613 352.348 410.512C353.023 410.799 362.559 410.787 363.233 410.512C363.833 410.262 364.733 409.425 364.933 408.951L365.083 408.576H367.32H369.557V411.261V413.947H357.81H346.062V403.267V392.587H357.81H369.557V399.52ZM404.725 405.74C405.037 405.915 405.325 406.228 405.512 406.565C405.787 407.089 405.8 407.252 405.8 409.475V411.824H394.04H382.28L382.329 409.35C382.367 406.552 382.442 406.315 383.367 405.753L383.867 405.453H394.052H404.237L404.725 405.74ZM362.546 406.64C362.934 406.827 363.221 407.452 363.096 407.801C363.059 407.914 362.909 408.139 362.771 408.289L362.521 408.576H357.81C353.261 408.576 353.098 408.563 352.836 408.326C352.286 407.814 352.398 406.952 353.061 406.615C353.548 406.365 362.071 406.39 362.546 406.64ZM405.8 424.627V435.307H394.052H382.305V427.812V420.317H384.766H387.216L386.929 420.63C386.291 421.317 386.741 422.441 387.653 422.441C388.041 422.441 388.253 422.291 389.441 421.104C390.715 419.855 390.803 419.743 390.803 419.281C390.803 418.819 390.715 418.694 389.54 417.494C388.228 416.17 387.866 415.958 387.266 416.183C386.616 416.433 386.441 417.37 386.941 417.894L387.216 418.194H384.766H382.305V416.07V413.947H394.052H405.8V424.627ZM369.532 418.544C369.495 420.942 369.482 421.042 369.182 421.479C369.02 421.729 368.67 422.041 368.42 422.179C367.97 422.441 367.82 422.441 357.797 422.441H347.624L347.137 422.154C346.824 421.979 346.537 421.666 346.35 421.329C346.075 420.805 346.062 420.642 346.062 418.419V416.07H357.822H369.582L369.532 418.544ZM405.8 439.741C405.8 441.402 405.75 442.177 405.625 442.464C405.412 443.001 404.65 443.651 404.15 443.738C403.925 443.776 399.238 443.801 393.727 443.776L383.717 443.738L383.254 443.376C382.417 442.751 382.305 442.314 382.305 439.704V437.43H394.052H405.8V439.741Z" fill="black"/>
<path d="M352.886 386.492C352.386 386.929 352.348 387.466 352.748 387.941L353.086 388.34H355.098C357.21 388.328 357.372 388.29 357.66 387.753C357.897 387.316 357.835 386.966 357.447 386.579L357.085 386.217H355.135C353.311 386.217 353.186 386.229 352.886 386.492Z" fill="black"/>
<path d="M360.297 386.579C359.897 386.991 359.847 387.304 360.122 387.828C360.347 388.278 360.522 388.34 361.546 388.34C362.821 388.34 363.371 387.791 362.996 386.891C362.784 386.367 362.421 386.217 361.421 386.217C360.747 386.217 360.622 386.254 360.297 386.579Z" fill="black"/>
<path d="M389.203 407.776C389.041 407.889 388.866 408.114 388.791 408.276C388.628 408.713 388.941 409.413 389.366 409.575C389.553 409.65 390.515 409.7 391.503 409.7H393.327L393.69 409.338C394.152 408.863 394.177 408.314 393.74 407.889C393.44 407.589 393.39 407.577 391.465 407.577C389.853 407.577 389.428 407.614 389.203 407.776Z" fill="black"/>
<path d="M396.664 407.739C396.089 408.176 396.039 408.838 396.539 409.338C396.876 409.675 396.976 409.7 397.789 409.7C398.514 409.7 398.713 409.65 398.976 409.413C399.476 408.988 399.513 408.451 399.113 407.976C398.788 407.589 398.751 407.577 397.826 407.577C397.264 407.589 396.776 407.652 396.664 407.739Z" fill="black"/>
<path d="M356.073 418.519C355.573 418.931 355.535 419.556 355.998 420.005C356.285 420.305 356.372 420.318 357.735 420.318C358.522 420.318 359.259 420.28 359.372 420.243C359.609 420.143 359.934 419.556 359.934 419.193C359.934 419.043 359.772 418.756 359.572 418.556C359.209 418.194 359.184 418.194 357.835 418.194C356.535 418.194 356.435 418.207 356.073 418.519Z" fill="black"/>
<path d="M392.452 439.641C392.24 439.716 391.927 440.353 391.927 440.678C391.927 440.828 392.09 441.115 392.29 441.315C392.652 441.677 392.677 441.677 394.052 441.677C395.427 441.677 395.452 441.677 395.814 441.315C396.277 440.84 396.302 440.291 395.864 439.866C395.577 439.566 395.489 439.554 394.089 439.566C393.277 439.566 392.54 439.604 392.452 439.641Z" fill="black"/>
<path d="M59.6291 395.862V383.065H63.2414C64.3547 383.065 65.3391 383.311 66.1946 383.803C67.05 384.295 67.7092 384.995 68.1721 385.904C68.6409 386.812 68.8782 387.855 68.884 389.033V389.85C68.884 391.057 68.6496 392.115 68.1809 393.023C67.718 393.931 67.053 394.628 66.1858 395.115C65.3245 395.601 64.3196 395.85 63.1711 395.862H59.6291ZM61.3166 384.453V394.482H63.092C64.3928 394.482 65.4036 394.078 66.1243 393.269C66.8508 392.46 67.2141 391.309 67.2141 389.815V389.068C67.2141 387.615 66.8713 386.487 66.1858 385.684C65.5061 384.875 64.5393 384.465 63.2854 384.453H61.3166ZM75.673 396.037C74.384 396.037 73.3352 395.616 72.5266 394.772C71.718 393.922 71.3137 392.788 71.3137 391.37V391.072C71.3137 390.128 71.4924 389.287 71.8498 388.549C72.2131 387.805 72.717 387.225 73.3615 386.809C74.0119 386.387 74.715 386.176 75.4709 386.176C76.7072 386.176 77.6682 386.583 78.3537 387.398C79.0393 388.212 79.382 389.378 79.382 390.896V391.573H72.9396C72.9631 392.51 73.2355 393.269 73.757 393.849C74.2844 394.423 74.9523 394.71 75.7609 394.71C76.3352 394.71 76.8215 394.593 77.2199 394.359C77.6184 394.124 77.967 393.814 78.2658 393.427L79.259 394.201C78.4621 395.425 77.2668 396.037 75.673 396.037ZM75.4709 387.512C74.8146 387.512 74.2639 387.752 73.8186 388.233C73.3732 388.707 73.0978 389.375 72.9924 390.237H77.7561V390.114C77.7092 389.287 77.4865 388.649 77.0881 388.198C76.6896 387.741 76.1506 387.512 75.4709 387.512ZM87.3488 393.339C87.3488 392.9 87.1818 392.56 86.8478 392.32C86.5197 392.074 85.9425 391.863 85.1164 391.687C84.2961 391.511 83.6427 391.3 83.1564 391.054C82.6759 390.808 82.3185 390.515 82.0841 390.175C81.8556 389.835 81.7414 389.431 81.7414 388.962C81.7414 388.183 82.0695 387.524 82.7257 386.985C83.3878 386.446 84.2316 386.176 85.257 386.176C86.3351 386.176 87.2082 386.454 87.8761 387.011C88.55 387.568 88.8869 388.28 88.8869 389.147H87.2521C87.2521 388.702 87.0617 388.318 86.6808 387.995C86.3058 387.673 85.8312 387.512 85.257 387.512C84.6652 387.512 84.2023 387.641 83.8683 387.899C83.5343 388.157 83.3673 388.494 83.3673 388.91C83.3673 389.302 83.5226 389.598 83.8332 389.797C84.1437 389.996 84.7033 390.187 85.5119 390.369C86.3263 390.55 86.9855 390.767 87.4894 391.019C87.9933 391.271 88.3654 391.576 88.6056 391.933C88.8517 392.285 88.9748 392.715 88.9748 393.225C88.9748 394.075 88.6349 394.757 87.9552 395.273C87.2755 395.783 86.3937 396.037 85.3097 396.037C84.548 396.037 83.8742 395.903 83.2882 395.633C82.7023 395.364 82.2423 394.989 81.9084 394.508C81.5802 394.022 81.4162 393.497 81.4162 392.935H83.0421C83.0714 393.48 83.2882 393.913 83.6925 394.236C84.1027 394.552 84.6418 394.71 85.3097 394.71C85.925 394.71 86.4171 394.587 86.7863 394.341C87.1613 394.089 87.3488 393.755 87.3488 393.339ZM93.3995 395.862H91.7736V386.352H93.3995V395.862ZM91.6417 383.829C91.6417 383.566 91.7208 383.343 91.879 383.161C92.0431 382.98 92.2833 382.889 92.5997 382.889C92.9161 382.889 93.1564 382.98 93.3204 383.161C93.4845 383.343 93.5665 383.566 93.5665 383.829C93.5665 384.093 93.4845 384.313 93.3204 384.489C93.1564 384.664 92.9161 384.752 92.5997 384.752C92.2833 384.752 92.0431 384.664 91.879 384.489C91.7208 384.313 91.6417 384.093 91.6417 383.829ZM96.1632 391.028C96.1632 389.545 96.5059 388.368 97.1915 387.495C97.877 386.616 98.7852 386.176 99.9161 386.176C101.076 386.176 101.982 386.586 102.632 387.407L102.711 386.352H104.196V395.633C104.196 396.864 103.83 397.833 103.098 398.542C102.371 399.251 101.393 399.606 100.162 399.606C99.4766 399.606 98.8057 399.459 98.1495 399.166C97.4932 398.873 96.9923 398.472 96.6466 397.962L97.4903 396.987C98.1876 397.848 99.0401 398.279 100.048 398.279C100.839 398.279 101.454 398.056 101.894 397.611C102.339 397.165 102.562 396.538 102.562 395.73V394.912C101.911 395.662 101.024 396.037 99.8985 396.037C98.7852 396.037 97.8829 395.589 97.1915 394.693C96.5059 393.796 96.1632 392.575 96.1632 391.028ZM97.7979 391.212C97.7979 392.285 98.0177 393.128 98.4571 393.744C98.8966 394.353 99.5118 394.658 100.303 394.658C101.328 394.658 102.081 394.192 102.562 393.26V388.918C102.064 388.01 101.316 387.556 100.32 387.556C99.5294 387.556 98.9112 387.864 98.4659 388.479C98.0206 389.094 97.7979 390.005 97.7979 391.212ZM108.735 386.352L108.788 387.547C109.515 386.633 110.464 386.176 111.636 386.176C113.646 386.176 114.659 387.31 114.677 389.578V395.862H113.051V389.569C113.045 388.883 112.887 388.376 112.576 388.048C112.272 387.72 111.794 387.556 111.144 387.556C110.616 387.556 110.153 387.697 109.755 387.978C109.356 388.259 109.046 388.628 108.823 389.085V395.862H107.197V386.352H108.735ZM126.699 390.158C125.252 389.742 124.197 389.232 123.535 388.628C122.879 388.019 122.551 387.269 122.551 386.378C122.551 385.37 122.952 384.538 123.755 383.882C124.563 383.22 125.612 382.889 126.901 382.889C127.78 382.889 128.562 383.059 129.248 383.399C129.939 383.739 130.473 384.207 130.848 384.805C131.228 385.403 131.419 386.056 131.419 386.765H129.723C129.723 385.992 129.477 385.385 128.984 384.946C128.492 384.5 127.798 384.278 126.901 384.278C126.069 384.278 125.419 384.462 124.95 384.831C124.487 385.195 124.256 385.702 124.256 386.352C124.256 386.873 124.476 387.316 124.915 387.679C125.36 388.036 126.113 388.365 127.174 388.663C128.24 388.962 129.072 389.293 129.67 389.657C130.273 390.014 130.719 390.433 131.006 390.913C131.299 391.394 131.445 391.959 131.445 392.61C131.445 393.647 131.041 394.479 130.232 395.106C129.424 395.727 128.343 396.037 126.989 396.037C126.11 396.037 125.29 395.87 124.528 395.536C123.767 395.197 123.178 394.734 122.762 394.148C122.352 393.562 122.146 392.897 122.146 392.153H123.843C123.843 392.926 124.127 393.538 124.695 393.99C125.269 394.435 126.034 394.658 126.989 394.658C127.88 394.658 128.562 394.476 129.037 394.113C129.512 393.749 129.749 393.254 129.749 392.627C129.749 392 129.529 391.517 129.09 391.177C128.65 390.831 127.853 390.492 126.699 390.158ZM137.013 393.48L139.227 386.352H140.968L137.144 397.329C136.553 398.911 135.612 399.703 134.323 399.703L134.016 399.676L133.409 399.562V398.244L133.849 398.279C134.399 398.279 134.827 398.167 135.132 397.945C135.442 397.722 135.697 397.315 135.896 396.723L136.257 395.756L132.864 386.352H134.64L137.013 393.48ZM148.504 393.339C148.504 392.9 148.337 392.56 148.003 392.32C147.675 392.074 147.098 391.863 146.271 391.687C145.451 391.511 144.798 391.3 144.311 391.054C143.831 390.808 143.474 390.515 143.239 390.175C143.011 389.835 142.896 389.431 142.896 388.962C142.896 388.183 143.224 387.524 143.881 386.985C144.543 386.446 145.387 386.176 146.412 386.176C147.49 386.176 148.363 386.454 149.031 387.011C149.705 387.568 150.042 388.28 150.042 389.147H148.407C148.407 388.702 148.217 388.318 147.836 387.995C147.461 387.673 146.986 387.512 146.412 387.512C145.82 387.512 145.357 387.641 145.023 387.899C144.689 388.157 144.522 388.494 144.522 388.91C144.522 389.302 144.678 389.598 144.988 389.797C145.299 389.996 145.858 390.187 146.667 390.369C147.481 390.55 148.141 390.767 148.644 391.019C149.148 391.271 149.52 391.576 149.761 391.933C150.007 392.285 150.13 392.715 150.13 393.225C150.13 394.075 149.79 394.757 149.11 395.273C148.431 395.783 147.549 396.037 146.465 396.037C145.703 396.037 145.029 395.903 144.443 395.633C143.857 395.364 143.397 394.989 143.063 394.508C142.735 394.022 142.571 393.497 142.571 392.935H144.197C144.226 393.48 144.443 393.913 144.848 394.236C145.258 394.552 145.797 394.71 146.465 394.71C147.08 394.71 147.572 394.587 147.941 394.341C148.316 394.089 148.504 393.755 148.504 393.339ZM154.994 384.049V386.352H156.769V387.609H154.994V393.506C154.994 393.887 155.073 394.174 155.231 394.368C155.389 394.555 155.659 394.649 156.04 394.649C156.227 394.649 156.485 394.614 156.813 394.543V395.862C156.386 395.979 155.97 396.037 155.565 396.037C154.839 396.037 154.291 395.818 153.922 395.378C153.553 394.939 153.368 394.315 153.368 393.506V387.609H151.637V386.352H153.368V384.049H154.994ZM163.163 396.037C161.874 396.037 160.825 395.616 160.016 394.772C159.208 393.922 158.804 392.788 158.804 391.37V391.072C158.804 390.128 158.982 389.287 159.34 388.549C159.703 387.805 160.207 387.225 160.851 386.809C161.502 386.387 162.205 386.176 162.961 386.176C164.197 386.176 165.158 386.583 165.844 387.398C166.529 388.212 166.872 389.378 166.872 390.896V391.573H160.429C160.453 392.51 160.725 393.269 161.247 393.849C161.774 394.423 162.442 394.71 163.251 394.71C163.825 394.71 164.311 394.593 164.71 394.359C165.108 394.124 165.457 393.814 165.756 393.427L166.749 394.201C165.952 395.425 164.757 396.037 163.163 396.037ZM162.961 387.512C162.304 387.512 161.754 387.752 161.308 388.233C160.863 388.707 160.588 389.375 160.482 390.237H165.246V390.114C165.199 389.287 164.976 388.649 164.578 388.198C164.179 387.741 163.64 387.512 162.961 387.512ZM170.831 386.352L170.875 387.407C171.572 386.586 172.512 386.176 173.696 386.176C175.026 386.176 175.931 386.686 176.412 387.705C176.728 387.248 177.138 386.879 177.642 386.598C178.152 386.317 178.753 386.176 179.444 386.176C181.53 386.176 182.591 387.281 182.626 389.49V395.862H181V389.586C181 388.907 180.844 388.4 180.534 388.066C180.223 387.726 179.702 387.556 178.969 387.556C178.366 387.556 177.865 387.738 177.467 388.101C177.068 388.458 176.837 388.942 176.772 389.551V395.862H175.137V389.63C175.137 388.247 174.461 387.556 173.107 387.556C172.041 387.556 171.311 388.01 170.919 388.918V395.862H169.293V386.352H170.831Z" fill="black"/>
<path d="M89.0468 307.257C87.0907 307.942 85.7052 309.164 84.8413 311.006L84.3197 312.098L84.2707 335.93L84.2381 359.777H82.5918C80.9943 359.777 80.9454 359.794 80.4727 360.25L80 360.723V364.064C80 367.748 80.0978 368.286 80.978 369.395C81.2551 369.753 81.8583 370.21 82.331 370.454L83.1949 370.862L121.892 370.829L160.606 370.78L161.356 370.34C161.764 370.096 162.302 369.639 162.546 369.329C163.361 368.254 163.459 367.683 163.459 364.064V360.723L162.986 360.25C162.513 359.794 162.465 359.777 160.867 359.777H159.221L159.188 335.93L159.139 312.098L158.618 311.006C157.9 309.474 156.841 308.398 155.325 307.648L154.102 307.045L121.99 307.012C91.8342 306.98 89.8129 306.996 89.0468 307.257ZM153.923 310.044C154.917 310.501 155.635 311.185 156.058 312.098C156.417 312.848 156.45 313.125 156.45 315.472V318.048H152.293H148.136V319.433V320.819H152.293H156.45V340.298V359.777H121.729H87.0092V340.298V320.819H102.25H117.491V319.433V318.048H102.25H87.0092V315.472C87.0092 313.125 87.0418 312.848 87.4005 312.098C87.8243 311.185 88.5415 310.501 89.5358 310.044C90.1553 309.751 91.5571 309.735 121.729 309.735C151.902 309.735 153.304 309.751 153.923 310.044ZM113.416 363.526C113.416 364.064 113.514 364.749 113.644 365.042C113.921 365.727 114.72 366.395 115.503 366.624C116.318 366.835 127.141 366.835 127.956 366.624C128.739 366.395 129.537 365.727 129.815 365.042C129.945 364.749 130.043 364.064 130.043 363.526V362.548H145.365H160.688V364.765C160.688 366.982 160.59 367.471 160.052 367.879C159.677 368.172 83.7817 368.172 83.4068 367.879C82.8689 367.471 82.7711 366.982 82.7711 364.765V362.548H98.0936H113.416V363.526ZM127.272 363.282V364.015H121.729H116.187V363.282V362.548H121.729H127.272V363.282Z" fill="black"/>
<path d="M92.5514 313.891V315.277H93.937H95.3225V313.891V312.506H93.937H92.5514V313.891Z" fill="black"/>
<path d="M98.0936 313.891V315.277H99.4792H100.865V313.891V312.506H99.4792H98.0936V313.891Z" fill="black"/>
<path d="M103.636 313.891V315.277H105.021H106.407V313.891V312.506H105.021H103.636V313.891Z" fill="black"/>
<path d="M129.277 315.521C128.885 315.798 128.69 316.32 128.396 317.836C128.217 318.83 128.184 318.863 127.516 319.124L126.815 319.385L125.821 318.716C124.468 317.787 124.109 317.673 123.474 317.95C123.18 318.08 122.072 319.059 120.996 320.151L119.04 322.123L120.018 323.101L120.996 324.079L122.561 322.514L124.142 320.949L125.006 321.52C126.603 322.563 126.587 322.563 128.136 321.895C128.885 321.569 129.586 321.308 129.668 321.308C129.978 321.308 130.662 320.656 130.744 320.297C130.793 320.085 130.923 319.499 131.021 318.977L131.216 318.032L132.863 318.08L134.509 318.129L134.77 319.385C134.917 320.069 135.129 320.737 135.243 320.884C135.357 321.015 135.829 321.259 136.286 321.406C136.759 321.552 137.476 321.846 137.9 322.058C138.323 322.27 138.812 322.449 138.975 322.449C139.138 322.449 139.79 322.123 140.41 321.716L141.535 320.998L142.643 322.09C143.246 322.677 143.735 323.231 143.735 323.297C143.735 323.362 143.442 323.883 143.067 324.438C142.284 325.66 142.284 325.791 143.197 327.975C143.915 329.686 143.996 329.752 145.773 330.143L146.751 330.355V331.969V333.599L145.496 333.859C144.045 334.169 143.703 334.414 143.409 335.375C143.295 335.75 143.034 336.402 142.822 336.826C142.284 337.886 142.333 338.342 143.083 339.483C143.442 340.021 143.735 340.526 143.735 340.624C143.735 340.706 143.246 341.276 142.659 341.863L141.567 342.955L140.491 342.238C139.285 341.439 138.812 341.358 137.867 341.847C137.525 342.026 136.824 342.319 136.335 342.499C135.846 342.694 135.357 342.955 135.243 343.086C135.129 343.232 134.917 343.901 134.77 344.585L134.509 345.84L132.863 345.889L131.216 345.938L131.021 344.862C130.874 344.047 130.76 343.803 130.548 343.803C130.092 343.803 128.347 344.161 128.201 344.292C128.054 344.406 128.657 347.47 128.918 347.992C129.26 348.628 129.798 348.709 133.107 348.66C136.807 348.595 136.775 348.611 137.15 346.802C137.28 346.183 137.411 345.514 137.459 345.335C137.508 345.091 137.753 344.928 138.258 344.781C138.959 344.585 138.975 344.585 140.084 345.335C141.877 346.541 141.893 346.525 144.664 343.754C147.435 340.983 147.435 340.966 146.262 339.206C145.854 338.603 145.528 338 145.528 337.869C145.528 337.674 145.789 336.908 145.952 336.663C145.968 336.631 146.62 336.484 147.403 336.321C149.587 335.864 149.522 335.995 149.522 332.001C149.522 328.741 149.522 328.66 149.147 328.268C148.935 328.04 148.495 327.812 148.169 327.747C146.034 327.356 146.001 327.339 145.708 326.638L145.414 325.97L146.213 324.747C147.403 322.922 147.419 322.987 144.648 320.183C141.844 317.363 141.877 317.38 140.035 318.602C138.894 319.368 138.829 319.385 138.323 319.189C137.492 318.847 137.443 318.781 137.215 317.428C137.036 316.45 136.889 316.076 136.547 315.717L136.107 315.277H132.863C130.255 315.277 129.554 315.326 129.277 315.521Z" fill="black"/>
<path d="M106.912 324.03C106.57 324.389 106.423 324.764 106.244 325.758C106.016 327.095 105.836 327.372 104.94 327.584C104.63 327.649 104.255 327.502 103.391 326.932C101.566 325.758 101.566 325.758 98.7946 328.529C96.0235 331.3 96.0235 331.268 97.2623 333.093L98.0448 334.267L97.8003 334.952C97.5557 335.604 97.4905 335.653 96.6429 335.816C93.8066 336.386 93.937 336.158 93.937 340.331V343.672L94.3608 344.031C94.6216 344.259 95.2248 344.487 95.8279 344.602C97.409 344.895 97.4416 344.928 97.7514 345.645L98.0448 346.329L97.2623 347.503C96.0398 349.312 96.0235 349.28 98.7783 352.067C101.549 354.855 101.566 354.855 103.457 353.648C104.565 352.931 104.646 352.899 105.152 353.11C105.967 353.436 106.016 353.502 106.244 354.855C106.423 355.833 106.57 356.208 106.912 356.55L107.352 357.006H110.482C114.671 357.006 114.427 357.153 115.063 354.333C115.274 353.42 115.323 353.355 115.959 353.127L116.611 352.882L117.752 353.648C119.578 354.871 119.676 354.838 122.3 352.263C123.49 351.089 124.566 349.916 124.68 349.655C124.908 349.084 124.81 348.791 123.832 347.291L123.18 346.28L123.441 345.628C123.702 344.993 123.767 344.944 124.631 344.781C126.343 344.439 126.766 344.292 127.027 343.917C127.223 343.64 127.272 342.971 127.272 340.249C127.272 336.957 127.272 336.94 126.88 336.565C126.62 336.337 126.082 336.125 125.365 335.995C123.718 335.685 123.734 335.701 123.441 334.968L123.18 334.3L123.914 333.191C124.859 331.773 124.957 331.414 124.533 330.73C124.338 330.42 123.278 329.279 122.153 328.187C119.708 325.791 119.61 325.758 117.801 326.964L116.66 327.73L115.975 327.47C115.307 327.225 115.291 327.209 115.014 326.019C114.851 325.351 114.688 324.65 114.639 324.454C114.459 323.721 113.84 323.59 110.482 323.59H107.352L106.912 324.03ZM112.454 327.519C112.699 328.92 113.106 329.475 114.101 329.768C114.492 329.882 115.144 330.159 115.568 330.371C115.992 330.583 116.513 330.762 116.709 330.762C116.921 330.762 117.573 330.436 118.16 330.045L119.236 329.328L120.393 330.485L121.566 331.659L120.98 332.523C120.002 333.974 119.985 334.153 120.637 335.604C120.947 336.305 121.257 337.038 121.322 337.234C121.485 337.837 122.153 338.228 123.36 338.44L124.501 338.636V340.298V341.977L123.408 342.173C122.153 342.401 121.615 342.678 121.403 343.2C121.322 343.395 120.996 344.161 120.686 344.879C120.36 345.612 120.099 346.313 120.099 346.443C120.099 346.574 120.425 347.193 120.833 347.813L121.55 348.937L120.393 350.111L119.236 351.268L118.127 350.535C117.279 349.964 116.905 349.818 116.562 349.883C115.78 350.013 113.351 351.154 112.992 351.529C112.797 351.757 112.585 352.344 112.454 353.078L112.243 354.251L110.596 354.203L108.95 354.154L108.689 352.882C108.542 352.181 108.314 351.513 108.184 351.399C107.923 351.138 105.217 349.997 104.614 349.883C104.32 349.834 103.88 350.013 103.065 350.551L101.924 351.285L100.832 350.193C100.213 349.606 99.7237 349.035 99.7237 348.937C99.7237 348.856 100.017 348.334 100.376 347.796C101.06 346.77 101.191 346.069 100.816 345.514C100.685 345.335 100.392 344.667 100.148 344.015C99.903 343.379 99.5933 342.76 99.4629 342.662C99.3488 342.548 98.6642 342.336 97.9796 342.189L96.7081 341.928V340.314V338.684L97.9633 338.424C98.6479 338.277 99.3162 338.065 99.4629 337.951C99.5933 337.837 99.903 337.217 100.148 336.582C100.392 335.93 100.685 335.261 100.816 335.082C101.191 334.528 101.06 333.827 100.376 332.8C100.017 332.262 99.7237 331.74 99.7237 331.659C99.7237 331.561 100.213 330.991 100.832 330.404L101.924 329.312L103.065 330.045C103.88 330.583 104.32 330.762 104.614 330.713C105.38 330.567 107.956 329.426 108.216 329.116C108.363 328.953 108.575 328.317 108.689 327.714C108.803 327.111 108.934 326.557 108.966 326.475C108.999 326.41 109.765 326.361 110.645 326.361H112.243L112.454 327.519Z" fill="black"/>
<path d="M109.227 332.083C106.032 332.637 103.391 335.049 102.56 338.179C102.299 339.157 102.267 341.341 102.495 342.254C103.587 346.443 107.532 349.133 111.688 348.546C116.546 347.862 119.822 343.167 118.714 338.456C117.866 334.854 114.834 332.278 111.134 332.001C110.547 331.969 109.7 332.001 109.227 332.083ZM112.699 335.196C113.905 335.636 114.932 336.598 115.568 337.902C116.041 338.864 116.106 339.141 116.106 340.298C116.09 341.358 116.008 341.781 115.666 342.515C114.851 344.292 113.449 345.384 111.525 345.759C109.227 346.215 106.798 344.976 105.608 342.743C105.233 342.026 105.184 341.749 105.184 340.298C105.184 338.424 105.445 337.723 106.635 336.5C108.233 334.821 110.433 334.348 112.699 335.196Z" fill="black"/>
<path d="M130.972 323.851C129.016 324.323 127.076 325.644 125.984 327.241C125.12 328.48 125.153 328.578 126.375 329.132C126.978 329.409 127.565 329.621 127.679 329.621C127.793 329.621 127.973 329.409 128.087 329.132C128.38 328.448 129.586 327.388 130.662 326.883C131.412 326.524 131.836 326.459 132.895 326.443C134.004 326.443 134.346 326.508 135.161 326.915C137.133 327.877 138.209 329.491 138.323 331.659C138.372 332.718 138.323 333.142 138.03 333.892C137.606 335.049 136.547 336.255 135.389 336.875C134.607 337.315 134.395 337.364 132.977 337.364C132.129 337.364 131.233 337.299 131.004 337.234C130.597 337.103 130.564 337.152 130.075 338.326C129.782 339.01 129.554 339.581 129.554 339.613C129.554 339.662 129.994 339.809 130.548 339.956C131.705 340.282 133.694 340.331 134.851 340.037C137.639 339.353 140.035 337.038 140.866 334.202C141.16 333.191 141.209 331.056 140.948 329.947C139.97 325.66 135.292 322.808 130.972 323.851Z" fill="black"/>
</svg>
