<svg width="175" height="96" viewBox="0 0 175 96" fill="none" xmlns="http://www.w3.org/2000/svg">
<path d="M26.3215 55.329C25.2042 57.3661 23.9347 59.2133 22.3269 60.8837C20.5285 62.7525 18.6071 64.4971 16.8773 66.433C15.0017 68.5323 13.2746 70.8259 12.1181 73.4057C11.5297 74.7182 11.0765 76.089 10.8435 77.5107C10.5901 79.0561 10.5517 80.6862 11.1201 82.1713C12.0526 84.6076 14.2237 86.2508 16.5324 87.3055C19.2471 88.5456 22.2339 89.222 25.1881 89.567C28.3215 89.9335 31.4967 89.8367 34.6062 89.3112C36.0885 89.0606 37.6359 88.7598 39.0415 88.2144C39.7055 87.9569 40.3204 87.5997 40.7182 86.9904C41.1198 86.3755 41.1751 85.6077 41.1919 84.8945C41.2118 84.0525 41.2247 83.2102 41.241 82.3682C41.2561 81.5953 41.3959 80.6927 41.0563 79.9703C40.4392 78.6574 38.7698 78.8584 37.5809 78.8954C34.4828 78.9909 31.3877 78.4825 28.4773 77.4188C27.7653 77.1584 27.0691 76.862 26.3858 76.5337C26.0898 76.3915 25.7283 76.4525 25.553 76.7516C25.3975 77.0176 25.4741 77.4404 25.7714 77.5834C28.5152 78.9015 31.4614 79.7226 34.4926 80.0114C35.2438 80.0832 35.9981 80.1204 36.7528 80.1228C37.4236 80.1247 38.0938 80.0615 38.7639 80.0688C39.1583 80.0732 39.7026 80.1046 39.9214 80.4253C40.0853 80.6655 40.0495 81.001 40.0451 81.2758C40.038 81.7207 40.0278 82.1659 40.0193 82.6111C40.004 83.405 39.9957 84.1991 39.9726 84.9927C39.9558 85.5624 39.9175 86.1742 39.4799 86.5907C39.0624 86.988 38.4514 87.1477 37.9132 87.3053C37.1834 87.5185 36.4458 87.7055 35.7026 87.8655C32.7818 88.4955 29.7755 88.6997 26.7945 88.4994C23.8931 88.3041 20.9783 87.7247 18.25 86.7098C16.1305 85.9213 13.9173 84.7022 12.7223 82.7077C11.2934 80.3231 11.9015 77.2867 12.8343 74.8307C13.7844 72.3297 15.3471 70.0814 17.0725 68.0548C18.7461 66.0894 20.619 64.3166 22.4454 62.4967C23.9335 61.0138 25.2762 59.4333 26.3853 57.6443C26.7309 57.0867 27.0569 56.5178 27.3724 55.9425C27.7489 55.2561 26.6983 54.6419 26.3215 55.329Z" fill="#333333"/>
<path d="M41.0819 81.3576C42.5358 81.3265 42.8676 79.5372 43.0899 78.4229C43.3854 76.9406 43.4686 75.4417 43.3742 73.9354C43.3438 73.4503 43.3087 72.9356 43.4862 72.487C43.5283 72.3807 43.6023 72.2647 43.6948 72.2047C43.8192 72.1244 43.9794 72.1142 44.1495 72.1881C44.677 72.4169 44.7987 73.0518 44.8221 73.5648C44.8545 74.277 44.8046 74.9972 44.7873 75.7096C44.77 76.4208 44.6437 77.2404 44.8557 77.9327C45.0531 78.5763 45.5862 78.9964 46.2223 79.1674C46.8518 79.3364 47.5005 79.2046 48.1295 79.3305C48.3218 79.3692 48.508 79.427 48.6205 79.5739C48.694 79.6707 48.6999 79.73 48.7318 79.8428C48.7191 79.7981 48.7352 79.8397 48.724 79.8941C48.7395 79.8188 48.7293 79.8834 48.7003 79.9126C48.5575 80.0583 48.2756 80.1767 48.1405 80.4067C47.9908 80.6613 47.9647 80.9601 48.0604 81.237C48.2047 81.6557 48.5976 81.9166 48.8858 82.23C48.8053 82.1422 48.8985 82.3001 48.8795 82.2225C48.8561 82.1291 48.8919 82.3691 48.8785 82.1928C48.8795 82.2047 48.9031 82.114 48.9051 82.1187C48.9175 82.152 48.8759 82.1743 48.8705 82.1814C48.715 82.3912 48.5005 82.5398 48.3712 82.7742C48.2296 83.0309 48.2008 83.3244 48.2941 83.6021C48.3966 83.9068 48.6882 84.0573 48.8143 84.3327C49.0007 84.7398 48.8128 85.1959 48.3912 85.3576C47.8216 85.5762 47.1385 85.4332 46.555 85.3498C44.7917 85.0974 43.0283 84.8448 41.2649 84.5924C40.9399 84.5457 40.6111 84.6722 40.5164 85.017C40.4378 85.3024 40.614 85.7179 40.9414 85.7646C42.6247 86.0056 44.3077 86.2465 45.991 86.4877C47.2454 86.6672 48.8729 86.9911 49.7459 85.7914C50.1283 85.2657 50.2008 84.5372 49.9618 83.9371C49.9004 83.7832 49.8301 83.649 49.732 83.5165C49.6974 83.4701 49.4856 83.1559 49.4046 83.1479C49.4954 83.1567 49.4136 83.3757 49.4223 83.3879C49.416 83.3789 49.4917 83.2962 49.4333 83.3597C49.5241 83.2612 49.621 83.1671 49.7093 83.0664C50.1536 82.559 50.2154 81.9511 49.7821 81.4157C49.6534 81.2567 49.5019 81.1257 49.3542 80.9846C49.3189 80.9511 49.1492 80.7697 49.2223 80.8558C49.1923 80.8203 49.1964 80.767 49.2162 80.8696C49.1921 80.7444 49.2106 80.9314 49.2128 80.9589C49.2205 81.0583 49.0898 81.0782 49.2398 80.999C49.2868 80.9744 49.3333 80.9372 49.3766 80.9061C49.5229 80.7996 49.6558 80.6819 49.7512 80.5261C49.9382 80.2216 49.9754 79.8652 49.9053 79.5194C49.7675 78.8401 49.2016 78.3509 48.5499 78.1809C47.8917 78.009 47.197 78.17 46.546 77.9952C46.3389 77.9392 46.1305 77.8512 46.0397 77.6426C45.9207 77.3693 45.973 77.0041 45.9801 76.717C45.9998 75.907 46.0205 75.0969 46.039 74.287C46.0563 73.5364 46.0443 72.7571 45.6926 72.0739C45.0682 70.8613 43.2936 70.445 42.5093 71.7339C42.1705 72.2902 42.1225 72.991 42.142 73.6263C42.1671 74.4501 42.2235 75.262 42.1746 76.087C42.1227 76.956 41.9942 77.8165 41.7932 78.6636C41.7089 79.0176 41.6364 79.3988 41.4745 79.7278C41.4154 79.8482 41.3487 79.9741 41.2498 80.0648C41.169 80.1392 41.1658 80.1399 41.0819 80.1419C40.2997 80.1584 40.2971 81.3742 41.0819 81.3576Z" fill="#333333"/>
<path d="M49.8761 84.804C51.5421 85.497 53.2702 86.0346 55.0377 86.4C55.9372 86.586 56.8461 86.7268 57.759 86.8294C58.5221 86.9152 59.3581 87.0402 60.0698 86.6716C60.8286 86.2784 61.0416 85.4444 61.1584 84.6683C61.2969 83.7471 61.4211 82.8233 61.5331 81.8987C61.7487 80.1186 61.9133 78.3327 62.027 76.5434C62.4875 69.2921 62.1063 61.9946 60.9238 54.8259C60.2592 50.7989 59.3335 46.8162 58.1555 42.9079C57.9301 42.1607 56.7551 42.479 56.9817 43.2311C59.0034 49.938 60.2777 56.8627 60.7672 63.85C61.0124 67.351 61.0647 70.8655 60.9225 74.3723C60.8515 76.1254 60.7319 77.8768 60.5635 79.6233C60.3994 81.3231 60.2375 83.048 59.9233 84.7281C59.869 85.018 59.8091 85.399 59.5428 85.5755C59.2828 85.7477 58.9077 85.7136 58.6134 85.6951C57.6714 85.6358 56.7298 85.4919 55.8036 85.3156C53.8827 84.9501 52.0047 84.3824 50.1997 83.6316C49.8963 83.5054 49.5305 83.768 49.4511 84.0561C49.3547 84.406 49.5716 84.6773 49.8761 84.804Z" fill="#333333"/>
<path d="M60.8043 55.1699C62.2081 55.0992 63.3583 54.2766 64.3308 53.3247C65.2882 52.3874 66.1533 51.3516 66.9445 50.2717C68.5469 48.0849 69.7918 45.634 70.6275 43.0564C72.4563 37.4174 72.3332 31.2926 72.0897 25.4374C72.0576 24.6596 71.9486 23.8963 71.5807 23.2C71.2806 22.6317 70.8303 22.1576 70.3244 21.7676C69.2935 20.9728 68.0416 20.5227 66.8123 20.1329C66.5647 20.0544 66.248 20.183 66.1248 20.4123C63.925 24.5093 61.7176 28.6204 59.0395 32.4315C56.7646 35.6687 53.9993 39.1107 50.1113 40.4227C46.5559 41.6226 42.718 41.0086 39.0476 41.3622C37.2327 41.537 35.4077 41.936 33.8403 42.9074C32.2904 43.868 31.0962 45.3135 30.1648 46.8607C28.1719 50.1713 27.1736 53.9736 25.1588 57.2785C24.9015 57.7003 24.6288 58.1125 24.3418 58.5146C24.151 58.7818 24.2946 59.191 24.5602 59.3462C24.8657 59.5246 25.2016 59.3963 25.3927 59.1281C27.687 55.9137 28.7746 52.1043 30.5728 48.6298C31.3776 47.0744 32.3593 45.5902 33.7269 44.4703C35.0543 43.3834 36.7558 42.8697 38.433 42.6467C42.1603 42.1517 45.9892 42.7921 49.6639 41.8256C53.6999 40.764 56.6734 37.6467 59.0957 34.4163C61.8902 30.6893 64.166 26.6115 66.3726 22.5199C66.6409 22.0222 66.9084 21.524 67.176 21.0258C66.9466 21.1191 66.7176 21.212 66.4885 21.3051C67.4812 21.62 68.4758 21.9704 69.3468 22.5534C70.2137 23.1343 70.757 23.9489 70.8468 24.999C70.9646 26.3774 70.9464 27.782 70.968 29.1648C70.9899 30.5641 70.989 31.9641 70.9378 33.3627C70.8354 36.1581 70.5267 38.9524 69.7779 41.6544C69.0983 44.1073 68.0435 46.4364 66.6494 48.5671C65.8758 49.7492 65.0005 50.8602 64.0319 51.8891C63.1772 52.7968 62.1349 53.8871 60.8043 53.9542C60.0248 53.9936 60.0202 55.2095 60.8043 55.1699Z" fill="#333333"/>
<path d="M34.774 43.2878C35.1449 41.9768 35.3966 40.6368 35.5359 39.2815C35.6038 38.6219 35.642 37.9591 35.6508 37.2958C35.6583 36.721 35.6666 36.1209 35.512 35.5619C35.3626 35.0224 35.0356 34.5351 34.5383 34.2606C34.0483 33.9902 33.4996 33.9623 32.9704 33.82C32.125 33.5924 31.4536 32.7891 31.4303 31.905C31.4057 30.9706 32.0225 30.177 32.8794 29.8611C33.5052 29.6306 33.9799 29.28 34.1191 28.5921C34.2464 27.9617 34.2567 27.2879 34.2572 26.647C34.2584 25.3077 34.0359 24.0176 33.754 22.7141C33.6508 22.2378 33.5829 21.7162 33.9295 21.3267C34.2094 21.0119 34.6216 20.8351 35.0149 20.7084C36.197 20.3274 37.4718 20.182 38.7062 20.1005C40.0132 20.0142 41.3245 20.0259 42.6332 20.0595C43.233 20.075 43.836 20.0804 44.4345 20.1239C44.9109 20.1587 45.4187 20.2272 45.8457 20.4541C46.2924 20.6916 46.5565 21.0812 46.7561 21.5366C47.0034 22.1011 47.1818 22.7058 47.341 23.2999C47.9903 25.7196 48.0896 28.2386 48.0847 30.7309C48.0823 31.9356 48.0869 33.147 48.01 34.3498C47.9423 35.4024 47.7889 36.4987 47.3155 37.4543C46.4129 39.2762 44.5519 40.0261 42.639 40.311C41.6519 40.4581 40.6442 40.4788 39.6478 40.48C39.0755 40.4805 38.5215 40.5218 37.955 40.6079C37.4219 40.6891 36.8913 40.7985 36.3506 40.8148C35.8516 40.8296 35.4081 40.7514 34.9913 40.4647C34.7204 40.2784 34.3158 40.4144 34.1586 40.6828C33.9821 40.9843 34.1055 41.3276 34.3769 41.5146C35.4402 42.2455 36.7379 42.0293 37.9302 41.8358C39.0186 41.659 40.1047 41.7166 41.2018 41.659C43.3223 41.5481 45.593 41.145 47.1981 39.6424C48.9859 37.969 49.2276 35.4306 49.2743 33.1234C49.3288 30.4405 49.3576 27.7399 48.9511 25.0802C48.7531 23.7864 48.4481 22.4919 47.9559 21.2764C47.7244 20.704 47.4396 20.1431 46.9537 19.7429C46.4876 19.359 45.926 19.1294 45.3342 19.0198C44.0796 18.7871 42.7476 18.8355 41.4764 18.8218C40.0933 18.807 38.706 18.8415 37.3324 19.0149C36.1354 19.1659 34.7929 19.3278 33.7321 19.9488C33.2725 20.2177 32.8701 20.599 32.6525 21.0904C32.3584 21.7547 32.449 22.4583 32.6045 23.1462C32.9149 24.5168 33.0877 25.8769 33.0257 27.2855C33.0118 27.6021 33.0064 27.9335 32.9514 28.2462C32.911 28.4757 32.8562 28.5661 32.6452 28.6556C32.0863 28.8934 31.5885 29.0969 31.1581 29.5472C30.3475 30.3956 29.9894 31.658 30.3619 32.7876C30.7209 33.8757 31.616 34.7437 32.737 35.0148C33.1788 35.1218 33.8299 35.1092 34.1476 35.486C34.4312 35.8221 34.4288 36.3555 34.4344 36.7694C34.4531 38.1572 34.336 39.5502 34.0821 40.9147C33.9539 41.6055 33.7915 42.2888 33.6004 42.9645C33.3869 43.7187 34.561 44.0409 34.774 43.2878Z" fill="#333333"/>
<path d="M34.4934 42.6014C32.9708 41.6096 30.9866 41.4768 29.2208 41.4537C27.1646 41.4267 25.1149 41.6259 23.0616 41.6927C22.5561 41.7093 22.05 41.7175 21.5444 41.7056C21.3126 41.7 21.0806 41.6903 20.8494 41.6742C20.7291 41.666 20.6089 41.6558 20.4889 41.6436C20.4465 41.639 20.4042 41.6341 20.3618 41.6295C20.3307 41.6261 20.2993 41.6222 20.2681 41.6183C20.327 41.6263 20.3197 41.6251 20.2462 41.6147C20.3358 41.9534 20.4253 42.2921 20.5147 42.6308C24.51 39.1572 25.1193 33.5009 25.2274 28.5425C25.3369 23.5062 25.1351 17.7694 28.6383 13.6924C29.3583 12.8542 30.205 12.1445 31.1852 11.629C32.3369 11.0231 33.6348 10.7309 34.9294 10.665C37.4354 10.5371 39.9792 11.1131 42.3383 11.9213C46.2711 13.2686 50.4857 15.8201 51.8158 20.0015C52.226 21.2909 52.2919 22.6287 52.2688 23.973C52.2464 25.2957 52.059 26.6834 52.3075 27.993C52.5052 29.0336 52.9611 30.0366 53.4604 30.9644C53.9828 31.9355 54.603 32.8602 55.3146 33.7037C55.5996 34.0414 55.9036 34.3641 56.2396 34.652C56.2079 34.4061 56.1763 34.1608 56.1444 33.9152C56.1127 33.9661 56.0782 34.0142 56.0443 34.0633C56.1495 33.9104 56.0185 34.0915 55.991 34.1229C55.8881 34.2398 55.7768 34.3495 55.6617 34.4543C55.5434 34.5625 55.42 34.6646 55.2951 34.765C55.1607 34.8727 55.3523 34.7222 55.2676 34.7864C55.2303 34.8149 55.1931 34.8426 55.1556 34.8706C55.0699 34.9338 54.983 34.9955 54.8956 35.0566C54.1471 35.5783 53.3499 36.0306 52.5439 36.4568C50.8314 37.3621 49.078 38.1445 47.3054 38.8377C46.5885 39.1183 45.8648 39.3935 45.125 39.6092C44.3748 39.828 44.6941 41.0015 45.4488 40.7814C47.0398 40.3172 48.5851 39.6486 50.0977 38.9795C51.9129 38.1761 53.7415 37.311 55.3861 36.1916C56.0541 35.7369 56.7605 35.2255 57.1955 34.5287C57.3287 34.3155 57.299 33.9622 57.1003 33.7922C56.3618 33.1598 55.7625 32.3725 55.2325 31.5626C54.6359 30.6505 54.1003 29.6753 53.7459 28.6419C53.6028 28.2252 53.4677 27.7209 53.438 27.3681C53.3796 26.6741 53.4275 25.9627 53.4497 25.2675C53.4986 23.7299 53.5519 22.183 53.2452 20.6655C52.3158 16.0647 48.2535 13.0213 44.1472 11.312C41.8448 10.3537 39.3631 9.69944 36.8756 9.48863C34.2288 9.26445 31.4895 9.73008 29.3389 11.3694C27.4207 12.8314 26.1298 14.9224 25.3133 17.1655C24.3603 19.7839 24.1463 22.5939 24.0709 25.358C23.9927 28.2145 24.0845 31.1052 23.5848 33.9306C23.1722 36.2626 22.3964 38.6447 20.8808 40.5067C20.5093 40.9633 20.0984 41.3849 19.6542 41.771C19.3329 42.0504 19.475 42.722 19.9227 42.7871C21.7547 43.0534 23.6254 42.8929 25.4647 42.7903C27.4048 42.6823 29.4615 42.5342 31.3544 42.8105C32.2833 42.9459 33.1295 43.163 33.8792 43.6513C34.5372 44.0799 35.1477 43.0276 34.4934 42.6014Z" fill="#333333"/>
<path d="M68.6902 21.0256C69.5919 18.9832 70.1515 16.8294 70.4263 14.6161C70.56 13.5399 70.6201 12.454 70.5989 11.3696C70.5792 10.3484 70.3146 9.19951 70.6425 8.20845C70.755 7.86757 70.966 7.60764 71.2871 7.44717C71.3998 7.391 71.5748 7.34091 71.6627 7.33435C71.8243 7.32219 71.9178 7.32705 72.0342 7.41507C72.3455 7.65092 72.4214 8.29088 72.5035 8.67189C72.6259 9.24377 72.7089 9.82172 72.763 10.4038C72.8728 11.5838 72.8825 12.7701 72.8937 13.9542C72.9044 15.1233 72.9207 16.3108 72.6968 17.4635C72.5213 18.3666 72.2379 19.273 71.8786 20.1199C71.6995 20.5418 71.4911 20.9551 71.2421 21.3402C71.048 21.6405 70.773 21.9651 70.5283 22.1263C69.8777 22.5557 70.4865 23.609 71.1427 23.1762C71.8925 22.6814 72.3881 21.8893 72.7671 21.0925C73.1634 20.2587 73.4692 19.3805 73.706 18.4889C74.0249 17.2907 74.1096 16.055 74.1145 14.8193C74.1198 13.5226 74.1123 12.2196 74.0225 10.9256C73.9772 10.273 73.9044 9.62113 73.7963 8.97558C73.6943 8.36699 73.5821 7.72849 73.3263 7.16269C72.8453 6.09893 71.6469 5.88909 70.6729 6.39751C69.643 6.9351 69.2995 8.0774 69.2849 9.16766C69.2769 9.76288 69.3463 10.3569 69.3696 10.9511C69.3925 11.531 69.391 12.1119 69.3677 12.6918C69.2613 15.3277 68.707 17.9931 67.6394 20.4122C67.5069 20.7122 67.5515 21.0648 67.8577 21.2437C68.1162 21.3949 68.5571 21.3276 68.6902 21.0256Z" fill="#333333"/>
<path d="M34.1325 24.8531C35.3567 24.5772 36.621 24.3705 37.8783 24.3447C38.3345 24.3352 38.8542 24.3476 39.2483 24.6085C39.6308 24.8619 39.7629 25.3044 39.8367 25.7353C39.9328 26.2965 39.9275 26.8819 39.9591 27.449C39.9973 28.1327 40.0356 28.8164 40.0735 29.4999C40.1424 30.7375 40.1675 31.9875 40.3165 33.2188C40.4477 34.3037 40.6877 35.4234 41.3318 36.3315C41.6826 36.8261 42.1962 37.4478 42.8815 37.3085C43.5414 37.1743 43.7222 36.5112 43.8639 35.9428C44.4861 33.443 44.2174 30.8557 44.1913 28.3114C44.184 27.5944 44.1964 26.8766 44.2549 26.1618C44.3055 25.5454 44.3649 24.8772 44.6976 24.3396C45.1981 23.5316 46.2663 23.2708 47.1163 23.6041C47.4223 23.7242 47.7843 23.4723 47.8649 23.1796C47.9598 22.8348 47.747 22.5523 47.4398 22.4319C46.5002 22.0633 45.3547 22.2306 44.5326 22.808C43.4895 23.5411 43.1845 24.6681 43.0633 25.8807C42.8053 28.4587 43.195 31.0487 43.0005 33.629C42.954 34.2446 42.869 34.8544 42.7293 35.456C42.6911 35.6201 42.65 35.7837 42.6035 35.9457C42.5979 35.9651 42.5054 36.1891 42.5124 36.2034C42.5151 36.2088 42.7778 35.9155 42.7541 36.119C42.7532 36.129 42.5857 35.9671 42.6422 36.0225C42.5467 35.9294 42.4611 35.8253 42.3829 35.7181C41.7807 34.8926 41.5867 33.8325 41.4927 32.8371C41.3732 31.5683 41.3347 30.2894 41.2636 29.0172C41.2245 28.3136 41.1853 27.6097 41.1461 26.906C41.1139 26.3334 41.0969 25.7501 40.965 25.1894C40.8153 24.5526 40.4805 23.9837 39.9367 23.608C39.4241 23.2537 38.7702 23.1441 38.1592 23.129C36.7145 23.0933 35.2131 23.3644 33.809 23.6809C33.0451 23.8528 33.3684 25.0253 34.1325 24.8531Z" fill="#333333"/>
<path d="M46.225 27.4009C47.0081 27.4009 47.0093 26.1852 46.225 26.1852C45.4419 26.1852 45.4404 27.4009 46.225 27.4009Z" fill="#333333"/>
<path d="M37.1097 29.0776C37.8928 29.0776 37.894 27.8619 37.1097 27.8619C36.3266 27.8619 36.3252 29.0776 37.1097 29.0776Z" fill="#333333"/>
<path d="M40.0883 39.1509C40.4846 39.1032 40.8846 39.0896 41.2831 39.1137C41.3751 39.1193 41.4669 39.1266 41.5586 39.1361C41.5754 39.1378 41.7585 39.157 41.6604 39.1465C41.563 39.1363 41.7446 39.1594 41.7619 39.1621C41.9591 39.1934 42.1543 39.2345 42.3478 39.2834C42.656 39.361 43.0223 39.1837 43.0964 38.8589C43.1684 38.5433 43.0017 38.1941 42.6713 38.1112C41.8305 37.8994 40.9501 37.8318 40.0883 37.9352C39.9214 37.9553 39.7816 37.9896 39.658 38.1132C39.5523 38.2187 39.473 38.3916 39.4798 38.543C39.4932 38.8399 39.7497 39.1915 40.0883 39.1509Z" fill="#333333"/>
<mask id="path-12-inside-1_508_192" fill="white">
<path fill-rule="evenodd" clip-rule="evenodd" d="M75.0378 7.45716C74.8508 7.52489 74.6877 7.59414 74.6753 7.61085C74.6629 7.62756 74.5359 7.79814 74.393 7.98987C74.1463 8.32116 74.1333 8.38311 74.1333 9.23431C74.1333 10.2104 74.1972 10.4423 74.6918 11.2601C74.9795 11.7358 74.9956 11.8032 74.9476 12.3268C74.7844 14.1059 74.7802 14.2756 74.8897 14.6668C75.0325 15.1765 75.4495 15.5962 76.0106 15.7948C76.5473 15.9848 76.7529 16.2821 77.0499 17.2974C77.2505 17.9828 77.3273 18.3148 77.5714 19.5524C77.7723 20.5708 78.1328 21.6745 78.3913 22.0625C78.8833 22.8007 79.6931 24.0823 79.754 24.219C79.7866 24.2924 80.4298 25.4124 81.1833 26.7079C81.9367 28.0035 82.6333 29.2035 82.7313 29.3746C82.8295 29.5457 82.9849 29.7918 83.077 29.9216C83.1691 30.0514 83.2444 30.1779 83.2444 30.2027C83.2444 30.2275 83.6769 30.9412 84.2056 31.7889C88.1148 38.0578 91.0467 41.6816 93.5657 43.3579L94.598 44.0449L94.6548 44.6431C94.7257 45.3893 94.874 46.659 94.979 47.419C95.0228 47.7368 95.1029 48.3568 95.1569 48.7968C95.2109 49.2368 95.2934 49.8168 95.3403 50.0857C95.3873 50.3546 95.5489 51.3146 95.6995 52.219C96.1035 54.6444 96.0966 54.6057 96.261 55.3746C96.6122 57.0171 96.9074 57.8714 97.5034 58.9708C97.6945 59.3232 97.7951 59.6697 98.0851 60.9746C98.2362 61.6544 98.4822 63.436 98.6681 65.1968C98.8446 66.8689 98.8708 67.2067 99.1178 70.9746C99.2097 72.3773 99.1782 78.3754 99.0736 79.3746C98.9464 80.59 98.7424 81.5739 98.5187 82.0512C98.3255 82.4637 97.7425 82.9603 96.2893 83.9504C94.511 85.162 93.9111 85.8578 93.9111 86.7084C93.9111 87.0764 93.9491 87.1685 94.1819 87.3644C94.7991 87.8838 96.2651 88.1228 98.6222 88.0884C99.5755 88.0746 100.422 88.0354 100.503 88.0014C100.584 87.9675 100.731 87.7524 100.829 87.5237C101.075 86.9531 102.015 84.0957 102.604 82.1301C102.707 81.7879 102.997 80.8479 103.25 80.0412C103.503 79.2346 103.741 78.4546 103.779 78.3079C103.854 78.0193 104.354 76.4033 104.479 76.0412C104.522 75.919 104.646 75.519 104.755 75.1524C104.865 74.7857 104.985 74.4057 105.023 74.3079C105.06 74.2101 105.333 73.3901 105.628 72.4857C106.735 69.096 107.357 67.4753 107.727 67.019C107.935 66.7626 107.95 66.7584 108.105 66.9112C108.257 67.0603 108.265 67.278 108.238 70.4223C108.195 75.549 108.315 76.058 109.947 77.6839C110.895 78.6286 111.916 79.4332 113.489 80.4752L114.444 81.1083V81.7748C114.444 82.1413 114.414 82.4404 114.378 82.4396C114.341 82.4386 113.911 82.3798 113.422 82.309C112.346 82.1531 110.66 82.1373 109.966 82.2767C109.642 82.3416 109.367 82.4631 109.211 82.61C108.692 83.0966 108.219 85.2574 108.489 85.9084C108.761 86.5654 109.341 86.6644 113.111 86.6983C115.444 86.7193 115.468 86.7214 115.644 86.9235C116.058 87.3986 117.474 87.7724 119.556 87.9561C122.558 88.2212 129.004 88.1134 133.067 87.7303C133.311 87.7073 134.171 87.627 134.978 87.552C136.428 87.4172 137.414 87.3124 138.711 87.1556C140.574 86.9302 141.152 86.8842 143.244 86.7943C144.491 86.7407 145.811 86.6808 146.178 86.6612C146.544 86.6414 148.304 86.5651 150.089 86.4915C153.29 86.3594 154.799 86.2861 155.8 86.2143C156.35 86.1748 156.429 86.2508 156.181 86.5798C156.108 86.6754 156.049 86.9468 156.047 87.1884C156.045 87.5816 156.079 87.6569 156.393 87.9562C156.781 88.3251 156.821 88.3346 158.622 88.4853C160.618 88.6524 164.143 88.427 166.489 87.9823C168.301 87.6388 169.642 87.1222 169.989 86.634C170.151 86.4076 170.188 86.2297 170.194 85.6623C170.206 84.5254 169.9 83.8488 168.936 82.8802C167.89 81.8304 166.106 80.962 164.4 80.6732C164.033 80.6111 163.653 80.5428 163.556 80.5212C162.94 80.3861 160.85 80.326 159.488 80.404C157.091 80.5413 156.178 80.6269 152.089 81.0978C149.083 81.4438 147.074 81.5572 145.679 81.4595C144.488 81.376 144.347 81.3516 143.511 81.087C142.615 80.8032 141.904 80.2585 141.555 79.5891C141.157 78.8245 141.108 78.0808 141.123 73.019C141.137 68.4118 141.122 67.8798 140.925 66.2635C140.64 63.9191 140.347 62.4125 139.861 60.7968C139.758 60.4546 139.642 60.0546 139.603 59.9079C139.216 58.4522 137.874 55.3996 136.743 53.4012C135.9 51.9116 134.363 49.6176 133.572 48.6711C131.364 46.0271 129.514 44.4929 127.071 43.2799C126.536 43.0142 126.044 42.7968 125.978 42.7968C125.912 42.7968 125.82 42.7631 125.773 42.722C125.619 42.5854 123.885 42.1006 121.911 41.6424C119.066 40.9819 118.105 40.3586 116.721 38.2762C115.901 37.0422 115.79 36.8546 115.113 35.5524C114.014 33.4372 113.336 31.405 112.971 29.1287C112.753 27.7702 112.833 25.5247 113.151 24.0412C113.755 21.2316 114.188 18.8636 114.353 17.4635C114.408 16.999 114.491 16.3274 114.537 15.9709C114.652 15.0929 114.645 12.7816 114.525 12.2012C114.286 11.0414 114.004 10.51 113.43 10.138C112.264 9.38196 110.517 10.4823 108.431 13.2857C108.231 13.5546 107.956 13.9464 107.819 14.1564C107.655 14.4088 107.527 14.521 107.44 14.4876C107.367 14.4599 106.944 14.3956 106.499 14.3446C103.321 13.9814 102.737 13.9229 101.635 13.8576C100.911 13.8147 100.506 13.8288 100.274 13.9053C99.9872 14.0002 99.9219 13.994 99.7715 13.8579C99.4413 13.559 98.1926 11.4718 97.7141 10.419C97.6086 10.1868 97.4952 9.9968 97.4621 9.9968C97.2805 9.9968 96.9897 12.4817 96.9817 14.1024C96.9736 15.7325 97.0554 15.5713 95.7202 16.5842C95.273 16.9235 94.8672 17.25 94.8184 17.31C94.606 17.5708 93.6493 19.599 93.5145 20.074C93.3282 20.7313 93.3263 21.5677 93.51 22.0852C93.5881 22.305 93.806 22.725 93.9944 23.0186C95.3088 25.0673 95.8666 26.3647 95.8666 27.3727C95.8666 27.8655 95.5794 29.164 95.4395 29.3039C95.3893 29.3541 95.3096 29.3402 95.2343 29.2682C95.1665 29.2034 94.8911 28.9673 94.6222 28.7435C94.0038 28.2288 91.7173 26.3052 91.4222 26.0514C91.3 25.9463 90.66 25.4031 90 24.8443C89.34 24.2855 88.6378 23.6862 88.4396 23.5125C88.2415 23.3388 87.9615 23.0967 87.8174 22.9744C86.8304 22.136 83.883 19.5244 83.0966 18.7915C81.2099 17.033 80.3873 15.9572 80.0761 14.8412C79.8551 14.0484 79.7866 13.7848 79.6379 13.1524C79.3328 11.8547 78.5965 10.1543 77.8923 9.12125C77.5325 8.59342 76.6762 7.74782 76.3231 7.57165C75.9043 7.36276 75.4176 7.31938 75.0378 7.45716Z"/>
</mask>
<path fill-rule="evenodd" clip-rule="evenodd" d="M75.0378 7.45716C74.8508 7.52489 74.6877 7.59414 74.6753 7.61085C74.6629 7.62756 74.5359 7.79814 74.393 7.98987C74.1463 8.32116 74.1333 8.38311 74.1333 9.23431C74.1333 10.2104 74.1972 10.4423 74.6918 11.2601C74.9795 11.7358 74.9956 11.8032 74.9476 12.3268C74.7844 14.1059 74.7802 14.2756 74.8897 14.6668C75.0325 15.1765 75.4495 15.5962 76.0106 15.7948C76.5473 15.9848 76.7529 16.2821 77.0499 17.2974C77.2505 17.9828 77.3273 18.3148 77.5714 19.5524C77.7723 20.5708 78.1328 21.6745 78.3913 22.0625C78.8833 22.8007 79.6931 24.0823 79.754 24.219C79.7866 24.2924 80.4298 25.4124 81.1833 26.7079C81.9367 28.0035 82.6333 29.2035 82.7313 29.3746C82.8295 29.5457 82.9849 29.7918 83.077 29.9216C83.1691 30.0514 83.2444 30.1779 83.2444 30.2027C83.2444 30.2275 83.6769 30.9412 84.2056 31.7889C88.1148 38.0578 91.0467 41.6816 93.5657 43.3579L94.598 44.0449L94.6548 44.6431C94.7257 45.3893 94.874 46.659 94.979 47.419C95.0228 47.7368 95.1029 48.3568 95.1569 48.7968C95.2109 49.2368 95.2934 49.8168 95.3403 50.0857C95.3873 50.3546 95.5489 51.3146 95.6995 52.219C96.1035 54.6444 96.0966 54.6057 96.261 55.3746C96.6122 57.0171 96.9074 57.8714 97.5034 58.9708C97.6945 59.3232 97.7951 59.6697 98.0851 60.9746C98.2362 61.6544 98.4822 63.436 98.6681 65.1968C98.8446 66.8689 98.8708 67.2067 99.1178 70.9746C99.2097 72.3773 99.1782 78.3754 99.0736 79.3746C98.9464 80.59 98.7424 81.5739 98.5187 82.0512C98.3255 82.4637 97.7425 82.9603 96.2893 83.9504C94.511 85.162 93.9111 85.8578 93.9111 86.7084C93.9111 87.0764 93.9491 87.1685 94.1819 87.3644C94.7991 87.8838 96.2651 88.1228 98.6222 88.0884C99.5755 88.0746 100.422 88.0354 100.503 88.0014C100.584 87.9675 100.731 87.7524 100.829 87.5237C101.075 86.9531 102.015 84.0957 102.604 82.1301C102.707 81.7879 102.997 80.8479 103.25 80.0412C103.503 79.2346 103.741 78.4546 103.779 78.3079C103.854 78.0193 104.354 76.4033 104.479 76.0412C104.522 75.919 104.646 75.519 104.755 75.1524C104.865 74.7857 104.985 74.4057 105.023 74.3079C105.06 74.2101 105.333 73.3901 105.628 72.4857C106.735 69.096 107.357 67.4753 107.727 67.019C107.935 66.7626 107.95 66.7584 108.105 66.9112C108.257 67.0603 108.265 67.278 108.238 70.4223C108.195 75.549 108.315 76.058 109.947 77.6839C110.895 78.6286 111.916 79.4332 113.489 80.4752L114.444 81.1083V81.7748C114.444 82.1413 114.414 82.4404 114.378 82.4396C114.341 82.4386 113.911 82.3798 113.422 82.309C112.346 82.1531 110.66 82.1373 109.966 82.2767C109.642 82.3416 109.367 82.4631 109.211 82.61C108.692 83.0966 108.219 85.2574 108.489 85.9084C108.761 86.5654 109.341 86.6644 113.111 86.6983C115.444 86.7193 115.468 86.7214 115.644 86.9235C116.058 87.3986 117.474 87.7724 119.556 87.9561C122.558 88.2212 129.004 88.1134 133.067 87.7303C133.311 87.7073 134.171 87.627 134.978 87.552C136.428 87.4172 137.414 87.3124 138.711 87.1556C140.574 86.9302 141.152 86.8842 143.244 86.7943C144.491 86.7407 145.811 86.6808 146.178 86.6612C146.544 86.6414 148.304 86.5651 150.089 86.4915C153.29 86.3594 154.799 86.2861 155.8 86.2143C156.35 86.1748 156.429 86.2508 156.181 86.5798C156.108 86.6754 156.049 86.9468 156.047 87.1884C156.045 87.5816 156.079 87.6569 156.393 87.9562C156.781 88.3251 156.821 88.3346 158.622 88.4853C160.618 88.6524 164.143 88.427 166.489 87.9823C168.301 87.6388 169.642 87.1222 169.989 86.634C170.151 86.4076 170.188 86.2297 170.194 85.6623C170.206 84.5254 169.9 83.8488 168.936 82.8802C167.89 81.8304 166.106 80.962 164.4 80.6732C164.033 80.6111 163.653 80.5428 163.556 80.5212C162.94 80.3861 160.85 80.326 159.488 80.404C157.091 80.5413 156.178 80.6269 152.089 81.0978C149.083 81.4438 147.074 81.5572 145.679 81.4595C144.488 81.376 144.347 81.3516 143.511 81.087C142.615 80.8032 141.904 80.2585 141.555 79.5891C141.157 78.8245 141.108 78.0808 141.123 73.019C141.137 68.4118 141.122 67.8798 140.925 66.2635C140.64 63.9191 140.347 62.4125 139.861 60.7968C139.758 60.4546 139.642 60.0546 139.603 59.9079C139.216 58.4522 137.874 55.3996 136.743 53.4012C135.9 51.9116 134.363 49.6176 133.572 48.6711C131.364 46.0271 129.514 44.4929 127.071 43.2799C126.536 43.0142 126.044 42.7968 125.978 42.7968C125.912 42.7968 125.82 42.7631 125.773 42.722C125.619 42.5854 123.885 42.1006 121.911 41.6424C119.066 40.9819 118.105 40.3586 116.721 38.2762C115.901 37.0422 115.79 36.8546 115.113 35.5524C114.014 33.4372 113.336 31.405 112.971 29.1287C112.753 27.7702 112.833 25.5247 113.151 24.0412C113.755 21.2316 114.188 18.8636 114.353 17.4635C114.408 16.999 114.491 16.3274 114.537 15.9709C114.652 15.0929 114.645 12.7816 114.525 12.2012C114.286 11.0414 114.004 10.51 113.43 10.138C112.264 9.38196 110.517 10.4823 108.431 13.2857C108.231 13.5546 107.956 13.9464 107.819 14.1564C107.655 14.4088 107.527 14.521 107.44 14.4876C107.367 14.4599 106.944 14.3956 106.499 14.3446C103.321 13.9814 102.737 13.9229 101.635 13.8576C100.911 13.8147 100.506 13.8288 100.274 13.9053C99.9872 14.0002 99.9219 13.994 99.7715 13.8579C99.4413 13.559 98.1926 11.4718 97.7141 10.419C97.6086 10.1868 97.4952 9.9968 97.4621 9.9968C97.2805 9.9968 96.9897 12.4817 96.9817 14.1024C96.9736 15.7325 97.0554 15.5713 95.7202 16.5842C95.273 16.9235 94.8672 17.25 94.8184 17.31C94.606 17.5708 93.6493 19.599 93.5145 20.074C93.3282 20.7313 93.3263 21.5677 93.51 22.0852C93.5881 22.305 93.806 22.725 93.9944 23.0186C95.3088 25.0673 95.8666 26.3647 95.8666 27.3727C95.8666 27.8655 95.5794 29.164 95.4395 29.3039C95.3893 29.3541 95.3096 29.3402 95.2343 29.2682C95.1665 29.2034 94.8911 28.9673 94.6222 28.7435C94.0038 28.2288 91.7173 26.3052 91.4222 26.0514C91.3 25.9463 90.66 25.4031 90 24.8443C89.34 24.2855 88.6378 23.6862 88.4396 23.5125C88.2415 23.3388 87.9615 23.0967 87.8174 22.9744C86.8304 22.136 83.883 19.5244 83.0966 18.7915C81.2099 17.033 80.3873 15.9572 80.0761 14.8412C79.8551 14.0484 79.7866 13.7848 79.6379 13.1524C79.3328 11.8547 78.5965 10.1543 77.8923 9.12125C77.5325 8.59342 76.6762 7.74782 76.3231 7.57165C75.9043 7.36276 75.4176 7.31938 75.0378 7.45716Z" stroke="#333333" stroke-width="2.66667" mask="url(#path-12-inside-1_508_192)"/>
<path d="M66.5844 8.26315C65.224 7.74741 63.9364 7.04462 62.7539 6.1853C62.5982 6.07202 62.3605 6.15694 62.2702 6.31506C62.1664 6.49647 62.2409 6.6964 62.3971 6.80982C63.6308 7.70647 64.9777 8.42286 66.3963 8.96058C66.5755 9.02858 66.7838 8.88478 66.8313 8.708C66.8856 8.5059 66.7641 8.33128 66.5844 8.26315Z" fill="#333333"/>
<path d="M65.5867 11.5139C64.7343 12.007 63.9086 12.5419 63.113 13.1171C62.9556 13.2308 62.875 13.422 62.9823 13.5996C63.0731 13.7498 63.3222 13.8408 63.4809 13.7261C64.2765 13.1509 65.1022 12.616 65.9544 12.1228C66.1234 12.0252 66.1853 11.8059 66.0852 11.6404C65.9864 11.4768 65.7562 11.4158 65.5867 11.5139Z" fill="#333333"/>
<path d="M81.0571 6.91477C82.359 5.58526 83.661 4.25575 84.9629 2.92609C85.2865 2.59561 84.778 2.08799 84.4538 2.41904L80.548 6.40758C80.2243 6.7382 80.7329 7.24583 81.0571 6.91477Z" fill="#333333"/>
<path d="M80.7841 10.2222H84.7268C85.1794 10.2222 85.1802 9.51106 84.7268 9.51106H80.7841C80.3315 9.51106 80.3307 10.2222 80.7841 10.2222Z" fill="#333333"/>
</svg>
